<svg fill="none" height="173" viewBox="0 0 150 173" width="150" xmlns="http://www.w3.org/2000/svg">
    <g clip-path="url(#clip0)">
        <path
            d="M147.7 53.32C146.59 48.12 144.39 40.92 138.22 38.48C136.695 37.8645 135.06 37.5708 133.417 37.6173C131.773 37.6637 130.157 38.0494 128.67 38.75C126.622 39.7572 124.792 41.159 123.287 42.8751C121.782 44.5912 120.631 46.5877 119.9 48.75C118.01 54.14 117.9 59.75 117.9 65.24C118.015 69.5199 117.68 73.8001 116.9 78.01C115.98 82.01 113.6 87.23 109.9 88.52C107.9 89.22 105.69 88.63 103.33 86.75C101.473 85.2319 99.8635 83.4336 98.56 81.42C101.114 78.8459 103.286 75.9196 105.01 72.73C110.61 62.38 112.34 49.65 109.53 39.53C107.9 33.93 104 28 97.77 28H97.65C89.83 28.09 86.41 37.05 85.55 39.8C82 51 84.5 63.86 87.18 72.7C87.8781 75.0291 88.7095 77.3163 89.67 79.55C88.2773 80.3557 86.7797 80.9648 85.22 81.36C83.22 81.87 81.64 81.78 80.52 81.07C78.74 79.95 77.87 77.26 77.12 73.56C75.73 66.68 75.6 59.42 75.48 52.39V50.72C75.48 48.52 75.41 46.31 75.39 44.11C75.32 37.95 75.25 31.59 74.84 25.32V24.73C74.39 18.61 73.94 11.67 71 6C68.11 0.609999 62.65 -1.37 57.08 0.999999C47.94 4.82 46.56 17.41 45.9 23.46C45 31.68 45.21 40.03 45.41 48.12C45.47 50.62 45.53 53.12 45.57 55.61C45.57 56 45.57 56.43 45.57 56.89C45.67 60.73 45.82 66.53 42.47 67.89C40.47 68.74 38.88 68.33 37.88 66.65C35.37 62.43 35.34 56.21 35.32 50.71C35.32 49.58 35.32 48.48 35.32 47.45C35.32 46.09 35.26 44.73 35.23 43.37C35.2396 36.7617 34.8053 30.1601 33.93 23.61C33.08 18.21 31.27 10.61 25.31 7.29C22.8578 5.82296 19.9369 5.35058 17.1473 5.96988C14.3577 6.58917 11.9111 8.25313 10.31 10.62C5.82 16.82 4.42 25.35 3.31 32.2C1.84304 41.5386 0.918163 50.9544 0.539998 60.4C0.239998 66.6 0.0899982 73 0.0799982 79.33C0.0799982 81.27 0.0799982 83.21 0.0799982 85.16C-1.84029e-06 92.91 -0.120002 100.93 0.999998 108.74C2 116.3 4.45 122 8.49 126.1C10.8367 128.443 13.5361 130.403 16.49 131.91C14.7596 138.125 14.7596 144.695 16.49 150.91C18.63 158.21 24 163.83 32 167.15C43 171.7 55.91 172.15 66.27 172.53C70.57 172.68 75 172.8 79.49 172.8C87.2258 172.859 94.9568 172.395 102.63 171.41C120.86 168.93 132.63 161.74 138.53 149.41C144.12 137.81 146.11 124.48 147.42 111.68C147.6 109.87 147.79 108.08 147.98 106.3L148.05 105.63C150 88.24 151.34 70.33 147.7 53.32ZM103.57 50.63C103.41 57.63 101.09 67.95 95.16 74.89C92.767 68.2895 91.4174 61.3562 91.16 54.34C90.75 45.72 92.16 36.15 97.3 35.13C97.5468 35.079 97.798 35.0522 98.05 35.05C98.7534 35.0478 99.4331 35.3041 99.96 35.77C102.78 38.19 103.67 46 103.57 50.64V50.63ZM44.19 111.71C54.19 108.81 68.8 110.17 75.07 117.42C75.7844 118.166 76.3126 119.07 76.6115 120.059C76.9104 121.048 76.9715 122.093 76.79 123.11C76.2 126.21 73.26 129.54 69.31 131.6C59.44 136.74 47.87 134.68 36.83 131.69L36.46 131.59C32.77 130.59 28.97 129.59 25.31 128.18C27.113 124.255 29.7281 120.758 32.9827 117.919C36.2372 115.08 40.0571 112.964 44.19 111.71ZM23.08 134.83C25.33 135.67 27.49 136.36 29.21 136.9C40.08 140.27 51.68 143.37 63.47 141.04C72.96 139.17 80.25 134.04 82.97 127.44C85.69 120.84 82.97 113.44 75.85 108.94C66.85 103.27 53.39 101.63 42.27 104.87C37.3363 106.324 32.7567 108.783 28.8191 112.092C24.8816 115.402 21.6713 119.49 19.39 124.1C19.22 124.44 19.05 124.8 18.88 125.17C17.4226 124.33 16.0466 123.356 14.77 122.26C10.92 118.93 8.77 114.08 7.86 107.01C7.14842 99.79 6.91124 92.5311 7.15 85.28C7.15 83.28 7.15 81.28 7.15 79.33C7.15 65.74 7.53 49.72 10.15 33.85C10.24 33.29 10.33 32.72 10.43 32.12C11.43 26.06 12.58 18.52 16.43 14.21C16.812 13.7081 17.3212 13.3174 17.9049 13.0783C18.4886 12.8391 19.1256 12.7603 19.75 12.85C21.75 13.16 23.92 15.15 24.99 17.57C27.5 23.23 27.7 29.95 27.89 36.45L27.94 38.15C28 40.09 28.04 42.04 28.07 43.98C28.0629 49.6616 28.3969 55.3384 29.07 60.98C29.56 64.54 30.59 71.98 36.15 74.55C37.5726 75.2595 39.1438 75.6196 40.7333 75.6004C42.3228 75.5813 43.8849 75.1835 45.29 74.44C47.1184 73.4009 48.688 71.9615 49.8812 70.2297C51.0744 68.4979 51.8603 66.5186 52.18 64.44C53.28 57.92 52.96 51.09 52.66 44.49C52.49 40.81 52.32 37 52.4 33.36C52.4 32.79 52.4 32.18 52.4 31.55C52.53 23.93 52.72 12.41 58.7 8.15C61.08 6.45 62.24 7.04 62.62 7.23C64.91 8.39 67.71 13.77 68.01 32.83C68.01 33.31 68.01 33.7 68.01 34C68.1 37.43 68.15 40.93 68.19 44.31C68.25 49.06 68.31 53.97 68.51 58.81V59C68.78 65.7 69.06 72.63 71.13 79.08C73.04 85.08 76.25 88.32 80.66 88.81C84.9753 89.2336 89.3062 88.1756 92.94 85.81C95.279 89.6961 98.6931 92.822 102.77 94.81C109.06 97.64 116.01 95.29 120.05 88.97C124.57 81.89 124.73 73.6 124.88 65.57C124.88 64.2 124.93 62.84 124.98 61.49C125.14 57.09 125.46 52.49 127.52 48.85C129.07 46.11 132.58 43.85 135.52 45.09C140 46.82 141 55 141.55 59.34V59.69C142.66 68.5 142.41 77.4 141.97 85.69C141.308 100.646 139.637 115.539 136.97 130.27C133.75 147.18 127.24 156.65 115.86 160.99C107.37 164.23 98.12 164.99 89.38 165.42C76.444 166.113 63.4729 165.732 50.6 164.28C41.18 163.14 31.74 161.22 26.42 154.95C22.53 150.3 21.28 142.84 23.08 134.83Z"
            fill="#FF364A" />
    </g>
    <defs>
        <clipPath id="clip0">
            <rect fill="white" height="172.8" width="150" />
        </clipPath>
    </defs>
</svg>
