<svg fill="none" height="16" viewBox="0 0 14 16" width="14" xmlns="http://www.w3.org/2000/svg">
    <path
        d="M13.5 0H7.5V4.5H8.5C8.63261 4.5 8.75979 4.55268 8.85355 4.64645C8.94732 4.74021 9 4.86739 9 5V8.5C9 8.63261 8.94732 8.75979 8.85355 8.85355C8.75979 8.94732 8.63261 9 8.5 9H5.5C5.36739 9 5.24021 8.94732 5.14645 8.85355C5.05268 8.75979 5 8.63261 5 8.5V5C5 4.86739 5.05268 4.74021 5.14645 4.64645C5.24021 4.55268 5.36739 4.5 5.5 4.5H6.5V0H0.5C0.367392 0 0.240215 0.0526784 0.146447 0.146447C0.0526784 0.240215 0 0.367392 0 0.5V15.5C0 15.6326 0.0526784 15.7598 0.146447 15.8536C0.240215 15.9473 0.367392 16 0.5 16H13.5C13.6326 16 13.7598 15.9473 13.8536 15.8536C13.9473 15.7598 14 15.6326 14 15.5V0.5C14 0.367392 13.9473 0.240215 13.8536 0.146447C13.7598 0.0526784 13.6326 0 13.5 0V0ZM8 13H6V12H8V13ZM8 11H6V10H8V11Z"
        fill="#646464" />
</svg>
