<svg fill="none" height="26" viewBox="0 0 19 26" width="19" xmlns="http://www.w3.org/2000/svg">
    <path clip-rule="evenodd"
        d="M2.4 25.8C1.29543 25.8 0.399994 24.9046 0.399994 23.8V2.20001C0.399994 1.09544 1.29542 0.200012 2.39999 0.200012H16.5333C17.6379 0.200012 18.5333 1.09544 18.5333 2.20001V23.8C18.5333 24.9046 17.6379 25.8 16.5333 25.8H2.4ZM2.53333 22.5334C2.53333 21.9811 2.98105 21.5334 3.53333 21.5334H15.4C15.9523 21.5334 16.4 21.9811 16.4 22.5334V22.6667C16.4 23.219 15.9523 23.6667 15.4 23.6667H3.53333C2.98105 23.6667 2.53333 23.219 2.53333 22.6667V22.5334ZM9.46666 8.73336C7.9939 8.73336 6.79999 9.92726 6.79999 11.4C6.79999 12.8728 7.9939 14.0667 9.46666 14.0667C10.9394 14.0667 12.1333 12.8728 12.1333 11.4C12.1333 9.92726 10.9394 8.73336 9.46666 8.73336Z"
        fill="#739AAB" fill-rule="evenodd" />
</svg>
