<svg fill="none" height="16" viewBox="0 0 16 16" width="16" xmlns="http://www.w3.org/2000/svg">
    <path clip-rule="evenodd"
        d="M2.39998 1.59998H13.6C14.08 1.59998 14.4 1.91998 14.4 2.39998V13.6C14.4 14.08 14.08 14.4 13.6 14.4H2.39998C1.91998 14.4 1.59998 14.08 1.59998 13.6V2.39998C1.59998 1.91998 1.91998 1.59998 2.39998 1.59998ZM12 12.8H12.8V3.19998H3.19998V12.8H3.99998C3.99998 11.6 5.19998 10.4 6.39998 10.4H9.59998C10.8 10.4 12 11.6 12 12.8ZM10.4 7.19998C10.4 8.52546 9.32546 9.59998 7.99998 9.59998C6.67449 9.59998 5.59998 8.52546 5.59998 7.19998C5.59998 5.87449 6.67449 4.79998 7.99998 4.79998C9.32546 4.79998 10.4 5.87449 10.4 7.19998Z"
        fill="#0D7EE6" fill-rule="evenodd" />
</svg>
