<svg fill="none" height="20" viewBox="0 0 21 20" width="21" xmlns="http://www.w3.org/2000/svg">
    <path clip-rule="evenodd"
        d="M5.5 17C5.5 17.5523 5.05228 18 4.5 18C3.94772 18 3.5 17.5523 3.5 17C3.5 16.4477 3.94772 16 4.5 16C5.05228 16 5.5 16.4477 5.5 17ZM9.5 17C9.5 17.5523 9.05228 18 8.5 18C7.94772 18 7.5 17.5523 7.5 17C7.5 16.4477 7.94772 16 8.5 16C9.05228 16 9.5 16.4477 9.5 17ZM12.5 18C13.0523 18 13.5 17.5523 13.5 17C13.5 16.4477 13.0523 16 12.5 16C11.9477 16 11.5 16.4477 11.5 17C11.5 17.5523 11.9477 18 12.5 18ZM17.5 17C17.5 17.5523 17.0523 18 16.5 18C15.9477 18 15.5 17.5523 15.5 17C15.5 16.4477 15.9477 16 16.5 16C17.0523 16 17.5 16.4477 17.5 17Z"
        fill="#0081B9" fill-rule="evenodd" />
    <path
        d="M14.5 7H13.5V5C13.5 4.20435 13.1839 3.44129 12.6213 2.87868C12.0587 2.31607 11.2956 2 10.5 2C9.70435 2 8.94129 2.31607 8.37868 2.87868C7.81607 3.44129 7.5 4.20435 7.5 5V7H6.5C6.23478 7 5.98043 7.10536 5.79289 7.29289C5.60536 7.48043 5.5 7.73478 5.5 8V13C5.5 13.2652 5.60536 13.5196 5.79289 13.7071C5.98043 13.8946 6.23478 14 6.5 14H14.5C14.7652 14 15.0196 13.8946 15.2071 13.7071C15.3946 13.5196 15.5 13.2652 15.5 13V8C15.5 7.73478 15.3946 7.48043 15.2071 7.29289C15.0196 7.10536 14.7652 7 14.5 7ZM9.5 7V5C9.5 4.73478 9.60536 4.48043 9.79289 4.29289C9.98043 4.10536 10.2348 4 10.5 4C10.7652 4 11.0196 4.10536 11.2071 4.29289C11.3946 4.48043 11.5 4.73478 11.5 5V7H9.5Z"
        fill="#0081B9" />
</svg>
