<svg fill="none" height="12" viewBox="0 0 20 12" width="20" xmlns="http://www.w3.org/2000/svg">
    <path clip-rule="evenodd"
        d="M8.79999 3C8.79999 4.65685 7.45685 6 5.79999 6C4.14314 6 2.79999 4.65685 2.79999 3C2.79999 1.34315 4.14314 0 5.79999 0C7.45685 0 8.79999 1.34315 8.79999 3ZM10.3144 8.7384C10.882 9.1884 11.2 9.8784 11.2 10.6032V12H0.399994V10.6032C0.399994 9.8784 0.717994 9.1884 1.28559 8.7384C2.15319 8.0496 3.65799 7.2 5.79999 7.2C7.94199 7.2 9.4468 8.0496 10.3144 8.7384ZM14.2 6C15.8568 6 17.2 4.65685 17.2 3C17.2 1.34315 15.8568 0 14.2 0C12.5431 0 11.2 1.34315 11.2 3C11.2 4.65685 12.5431 6 14.2 6ZM14.2 7.2C16.342 7.2 17.8468 8.0496 18.7144 8.7384C19.282 9.1884 19.6 9.8784 19.6 10.6032V12H13.6V10.6032C13.6 9.4032 13.15 8.2908 12.3772 7.4268C12.9244 7.29 13.5268 7.2 14.2 7.2Z"
        fill="#9BAED9" fill-rule="evenodd" />
</svg>
