<svg fill="none" height="16" viewBox="0 0 16 16" width="16" xmlns="http://www.w3.org/2000/svg">
    <path d="M8 6C9.1 6 10 5.1 10 4C10 2.9 8 0 8 0C8 0 6 2.9 6 4C6 5.1 6.9 6 8 6Z" fill="#6279B6" />
    <path
        d="M13.1 11V11.9H14H15C15.0498 11.9 15.0767 11.9082 15.0863 11.9119C15.0868 11.9121 15.0872 11.9122 15.0876 11.9124C15.0878 11.9128 15.0879 11.9132 15.0881 11.9137C15.0918 11.9233 15.1 11.9502 15.1 12V15C15.1 15.0498 15.0918 15.0767 15.0881 15.0863C15.0879 15.0868 15.0878 15.0872 15.0876 15.0876C15.0872 15.0878 15.0868 15.0879 15.0863 15.0881C15.0767 15.0918 15.0498 15.1 15 15.1H1C0.950153 15.1 0.923278 15.0918 0.913706 15.0881C0.913242 15.0879 0.912807 15.0878 0.9124 15.0876C0.912236 15.0872 0.912064 15.0868 0.911886 15.0863C0.908204 15.0767 0.9 15.0498 0.9 15V12C0.9 11.9502 0.908204 11.9233 0.911886 11.9137C0.912064 11.9132 0.912236 11.9128 0.912401 11.9124C0.912807 11.9122 0.913242 11.9121 0.913706 11.9119C0.923278 11.9082 0.950153 11.9 1 11.9H2H2.9V11V8C2.9 7.95015 2.9082 7.92328 2.91189 7.91371C2.91206 7.91324 2.91224 7.91281 2.9124 7.9124C2.91281 7.91224 2.91324 7.91206 2.91371 7.91189C2.92328 7.9082 2.95015 7.9 3 7.9H13C13.0498 7.9 13.0767 7.9082 13.0863 7.91189C13.0868 7.91206 13.0872 7.91224 13.0876 7.9124C13.0878 7.91281 13.0879 7.91324 13.0881 7.91371C13.0918 7.92328 13.1 7.95015 13.1 8V11Z"
        stroke="#6279B6" stroke-width="1.8" />
</svg>
