<svg fill="none" height="16" viewBox="0 0 16 16" width="16" xmlns="http://www.w3.org/2000/svg">
    <path
        d="M12 1.60001H7.19998V6.40001L5.59998 5.60001L3.99998 6.40001V1.60001C2.63998 1.60001 1.59998 2.64001 1.59998 4.00001V12C1.59998 13.36 2.63998 14.4 3.99998 14.4H12C13.36 14.4 14.4 13.36 14.4 12V8.80001V4.00001C14.4 2.64001 13.36 1.60001 12 1.60001ZM12.8 12C12.8 12.48 12.48 12.8 12 12.8H3.99998C3.51998 12.8 3.19998 12.48 3.19998 12C3.19998 11.52 3.51998 11.2 3.99998 11.2H12C12.48 11.2 12.72 11.12 12.8 11.04V12Z"
        fill="#0D7EE6" />
</svg>
