<svg fill="none" height="46" viewBox="0 0 41 46" width="41" xmlns="http://www.w3.org/2000/svg">
    <path d="M0 4C0 1.79086 1.79086 0 4 0H40V46H4C1.79086 46 0 44.2091 0 42V4Z" fill="#4765A8" />
    <path d="M0 4C0 1.79086 1.79086 0 4 0H40V46H4C1.79086 46 0 44.2091 0 42V4Z" fill="#4765A8" />
    <path
        d="M27.1133 15H12.8867C12.652 15.0017 12.4275 15.0957 12.2616 15.2616C12.0957 15.4275 12.0017 15.652 12 15.8867V30.1133C12.0017 30.348 12.0957 30.5725 12.2616 30.7384C12.4275 30.9043 12.652 30.9983 12.8867 31H20.5467V24.8133H18.4667V22.3933H20.5467V20.6133C20.5467 18.5467 21.8067 17.42 23.66 17.42C24.28 17.42 24.9 17.42 25.52 17.5133V19.6667H24.2467C23.24 19.6667 23.0467 20.1467 23.0467 20.8467V22.3867H25.4467L25.1333 24.8067H23.0467V31H27.1133C27.348 30.9983 27.5725 30.9043 27.7384 30.7384C27.9043 30.5725 27.9983 30.348 28 30.1133V15.8867C27.9983 15.652 27.9043 15.4275 27.7384 15.2616C27.5725 15.0957 27.348 15.0017 27.1133 15Z"
        fill="white" />
    <line stroke="#243A6C" x1="40.5" x2="40.5" y2="46" />
</svg>
