<svg fill="none" height="20" viewBox="0 0 20 20" width="20" xmlns="http://www.w3.org/2000/svg">
    <path
        d="M17 4H3C2.4 4 2 4.4 2 5V15C2 15.6 2.4 16 3 16H17C17.6 16 18 15.6 18 15V5C18 4.4 17.6 4 17 4ZM13.1 14H6.9C6.5 12.6 5.4 11.5 4 11.1V8.9C5.4 8.5 6.5 7.4 6.9 6H13.2C13.6 7.4 14.7 8.5 16.1 8.9V11.2C14.6 11.5 13.5 12.6 13.1 14Z"
        fill="#9BAED9" />
    <path
        d="M10 12C11.1046 12 12 11.1046 12 10C12 8.89543 11.1046 8 10 8C8.89543 8 8 8.89543 8 10C8 11.1046 8.89543 12 10 12Z"
        fill="#9BAED9" />
</svg>
