<svg fill="none" height="335" viewBox="0 0 360 335" width="360" xmlns="http://www.w3.org/2000/svg">
    <mask height="302" id="mask0" mask-type="alpha" maskUnits="userSpaceOnUse" width="360" x="0"
        y="33">
        <rect fill="#C4C4C4" height="302" width="360" y="33" />
    </mask>
    <g mask="url(#mask0)">
        <path d="M0 243H120C126.627 243 132 248.373 132 255V335H0V243Z" fill="#42366F" />
        <path
            d="M260.41 326.463L106.027 273.159C93.0383 268.674 79.5 278.323 79.5 292.064V299.607C79.5 306.715 72.2938 311.553 65.7151 308.863L-10.342 277.763C-24.1329 272.124 -38.4127 284.724 -34.5342 299.11L-16.5 366H516V325L461.17 307.27C451.145 304.029 442.426 314.895 447.763 323.98C450.679 328.942 445.964 334.895 440.466 333.194L300.911 290.017C288.044 286.036 275 295.654 275 309.123V316.065C275 323.623 267.554 328.929 260.41 326.463Z"
            fill="#959DDE" />
        <path
            d="M187.189 195.793C190.263 195.793 192.755 193.301 192.755 190.227C192.755 187.153 190.263 184.661 187.189 184.661C184.115 184.661 181.623 187.153 181.623 190.227C181.623 193.301 184.115 195.793 187.189 195.793Z"
            fill="#9181C9" />
        <path
            d="M187.189 191.835C188.077 191.835 188.797 191.115 188.797 190.227C188.797 189.339 188.077 188.619 187.189 188.619C186.301 188.619 185.581 189.339 185.581 190.227C185.581 191.115 186.301 191.835 187.189 191.835Z"
            fill="#42366F" />
        <path
            d="M200.136 222.217L186.179 187.302C182.488 178.07 176.432 169.971 168.621 163.818C159.817 156.884 149.155 152.718 137.983 151.846L128.654 151.116C119.745 150.421 110.799 151.841 102.545 155.261L91.9684 159.645"
            stroke="#42366F" stroke-miterlimit="10" />
        <path
            d="M115.07 152.508C115.502 152.508 115.852 152.158 115.852 151.726C115.852 151.294 115.502 150.943 115.07 150.943C114.638 150.943 114.287 151.294 114.287 151.726C114.287 152.158 114.638 152.508 115.07 152.508Z"
            fill="white" />
        <path
            d="M91.9685 160.482C92.4007 160.482 92.7511 160.132 92.7511 159.7C92.7511 159.267 92.4007 158.917 91.9685 158.917C91.5362 158.917 91.1859 159.267 91.1859 159.7C91.1859 160.132 91.5362 160.482 91.9685 160.482Z"
            fill="white" />
        <path
            d="M143.569 153.291C144.002 153.291 144.352 152.941 144.352 152.508C144.352 152.076 144.002 151.726 143.569 151.726C143.137 151.726 142.787 152.076 142.787 152.508C142.787 152.941 143.137 153.291 143.569 153.291Z"
            fill="white" />
        <path
            d="M165.453 162.375C165.885 162.375 166.236 162.025 166.236 161.592C166.236 161.16 165.885 160.81 165.453 160.81C165.021 160.81 164.67 161.16 164.67 161.592C164.67 162.025 165.021 162.375 165.453 162.375Z"
            fill="white" />
        <path
            d="M165.453 161.592H163.125C155.621 161.592 148.498 158.297 143.642 152.578L140.649 153.901C134.068 156.809 126.564 156.809 119.983 153.901L115.07 151.728L114.575 152.233C109.434 157.477 102.285 160.257 94.9514 159.862L91.9684 159.702"
            stroke="white" stroke-miterlimit="10" />
        <path d="M91.9684 159.7V335" stroke="white" stroke-miterlimit="10" />
        <path
            d="M91.9684 236.02H91.9659C89.343 232.594 89.3455 227.838 91.9684 224.413C94.5914 227.838 94.5914 232.594 91.9684 236.02Z"
            fill="#9181C9" />
        <path
            d="M91.9684 225.76C92.7128 225.76 93.3162 225.157 93.3162 224.413C93.3162 223.668 92.7128 223.065 91.9684 223.065C91.2241 223.065 90.6207 223.668 90.6207 224.413C90.6207 225.157 91.2241 225.76 91.9684 225.76Z"
            fill="white" />
        <path
            d="M91.9684 237.37C92.7128 237.37 93.3162 236.766 93.3162 236.022C93.3162 235.278 92.7128 234.674 91.9684 234.674C91.2241 234.674 90.6207 235.278 90.6207 236.022C90.6207 236.766 91.2241 237.37 91.9684 237.37Z"
            fill="white" />
        <path
            d="M272.22 230.219C268.987 234.014 264.262 236.262 259.236 236.349C258.776 236.362 258.311 236.352 257.843 236.322L228.973 234.529C228.406 234.494 227.896 234.872 227.766 235.424L217.019 280.977H203.237L213.623 229.863C214.996 223.107 220.982 218.287 227.876 218.382L246.301 218.644C247.021 220.942 247.334 223.365 247.214 225.8L246.994 230.219H272.22Z"
            fill="#9181C9" />
        <path
            d="M294.549 294.229H279.499L267.117 272.555C264.069 267.222 262.134 261.326 261.429 255.225L259.236 236.349C264.262 236.262 268.987 234.014 272.22 230.219H278.284L277.551 257.44C277.436 261.729 278.494 265.967 280.614 269.695L294.549 294.229Z"
            fill="#9181C9" />
        <path d="M259.236 236.35L259.223 236.244" stroke="black" stroke-miterlimit="10"
            stroke-width="0.237522" />
        <path
            d="M288 228.581C288 229.486 287.268 230.218 286.365 230.218H246.994L247.214 225.8C247.249 225.078 247.246 224.353 247.206 223.635C247.199 223.51 247.191 223.385 247.181 223.262C247.126 222.5 247.026 221.74 246.886 220.989C246.871 220.907 246.854 220.824 246.836 220.739C246.824 220.667 246.809 220.594 246.794 220.524C246.766 220.397 246.739 220.269 246.709 220.144C246.649 219.887 246.584 219.629 246.514 219.374C246.484 219.254 246.449 219.134 246.414 219.017C246.379 218.892 246.341 218.767 246.301 218.644C246.266 218.527 246.229 218.409 246.189 218.294C246.164 218.214 246.136 218.134 246.109 218.056C246.069 217.936 246.026 217.816 245.981 217.699C245.961 217.644 245.941 217.589 245.919 217.531C245.884 217.434 245.846 217.339 245.809 217.244C245.776 217.159 245.741 217.074 245.706 216.989C245.676 216.911 245.644 216.834 245.611 216.759C245.583 216.691 245.554 216.624 245.523 216.556C245.426 216.329 245.323 216.104 245.216 215.879C245.061 215.556 244.898 215.239 244.726 214.923C244.666 214.811 244.603 214.701 244.541 214.591C244.288 214.148 244.021 213.711 243.733 213.286L242.711 211.765L236.062 201.874C234.129 198.998 232.699 195.84 231.811 192.532C231.104 189.902 230.741 187.179 230.741 184.429V175.232C230.741 174.707 230.641 174.194 230.454 173.719C230.188 173.037 229.738 172.427 229.143 171.964L226.24 169.709L238.242 157.707C239.55 160.485 241.61 162.84 244.188 164.508L249.554 167.978C252.237 169.714 254.357 172.194 255.653 175.117L260.991 187.156C265.644 197.651 271.625 207.502 278.789 216.471L287.643 227.561C287.875 227.851 288 228.211 288 228.581Z"
            fill="#42366F" />
        <mask height="74" id="mask1" mask-type="alpha" maskUnits="userSpaceOnUse" width="63" x="226"
            y="157">
            <path
                d="M288 228.581C288 229.486 287.268 230.218 286.365 230.218H246.994L247.214 225.8C247.249 225.078 247.246 224.353 247.206 223.635C247.199 223.51 247.191 223.385 247.181 223.262C247.126 222.5 247.026 221.74 246.886 220.989C246.871 220.907 246.854 220.824 246.836 220.739C246.824 220.667 246.809 220.594 246.794 220.524C246.766 220.397 246.739 220.269 246.709 220.144C246.649 219.887 246.584 219.629 246.514 219.374C246.484 219.254 246.449 219.134 246.414 219.017C246.379 218.892 246.341 218.767 246.301 218.644C246.266 218.527 246.229 218.409 246.189 218.294C246.164 218.214 246.136 218.134 246.109 218.056C246.069 217.936 246.026 217.816 245.981 217.699C245.961 217.644 245.941 217.589 245.919 217.531C245.884 217.434 245.846 217.339 245.809 217.244C245.776 217.159 245.741 217.074 245.706 216.989C245.676 216.911 245.644 216.834 245.611 216.759C245.583 216.691 245.554 216.624 245.523 216.556C245.426 216.329 245.323 216.104 245.216 215.879C245.061 215.556 244.898 215.239 244.726 214.923C244.666 214.811 244.603 214.701 244.541 214.591C244.288 214.148 244.021 213.711 243.733 213.286L242.711 211.765L236.062 201.874C234.129 198.998 232.699 195.84 231.811 192.532C231.104 189.902 230.741 187.179 230.741 184.429V175.232C230.741 174.707 230.641 174.194 230.454 173.719C230.188 173.037 229.738 172.427 229.143 171.964L226.24 169.709L238.242 157.707C239.55 160.485 241.61 162.84 244.188 164.508L249.554 167.978C252.237 169.714 254.357 172.194 255.653 175.117L260.991 187.156C265.644 197.651 271.625 207.502 278.789 216.471L287.643 227.561C287.875 227.851 288 228.211 288 228.581Z"
                fill="#F4731C" />
        </mask>
        <g mask="url(#mask1)">
            <path
                d="M306.501 226.815C306.501 226.815 283.52 226.815 255.17 226.815C226.82 226.815 203.839 226.815 203.839 226.815C203.839 226.815 226.82 226.815 255.17 226.815C283.52 226.815 306.501 226.815 306.501 226.815Z"
                stroke="#9181C9" stroke-miterlimit="10" stroke-width="0.5" />
            <path
                d="M306.501 219.037C306.501 219.037 283.52 219.037 255.17 219.037C226.82 219.037 203.839 219.037 203.839 219.037C203.839 219.037 226.82 219.037 255.17 219.037C283.52 219.037 306.501 219.037 306.501 219.037Z"
                stroke="#9181C9" stroke-miterlimit="10" stroke-width="0.5" />
            <path
                d="M306.501 211.258C306.501 211.258 283.52 211.258 255.17 211.258C226.82 211.258 203.839 211.258 203.839 211.258C203.839 211.258 226.82 211.258 255.17 211.258C283.52 211.258 306.501 211.258 306.501 211.258Z"
                stroke="#9181C9" stroke-miterlimit="10" stroke-width="0.5" />
            <path
                d="M306.501 203.479C306.501 203.479 283.52 203.479 255.17 203.479C226.82 203.479 203.839 203.479 203.839 203.479C203.839 203.479 226.82 203.479 255.17 203.479C283.52 203.479 306.501 203.479 306.501 203.479Z"
                stroke="#9181C9" stroke-miterlimit="10" stroke-width="0.5" />
            <path
                d="M306.501 195.703C306.501 195.703 283.52 195.703 255.17 195.703C226.82 195.703 203.839 195.703 203.839 195.703C203.839 195.703 226.82 195.703 255.17 195.703C283.52 195.703 306.501 195.703 306.501 195.703Z"
                stroke="#9181C9" stroke-miterlimit="10" stroke-width="0.5" />
            <path
                d="M306.501 187.924C306.501 187.924 283.52 187.924 255.17 187.924C226.82 187.924 203.839 187.924 203.839 187.924C203.839 187.924 226.82 187.924 255.17 187.924C283.52 187.924 306.501 187.924 306.501 187.924Z"
                stroke="#9181C9" stroke-miterlimit="10" stroke-width="0.5" />
            <path
                d="M306.501 180.145C306.501 180.145 283.52 180.145 255.17 180.145C226.82 180.145 203.839 180.145 203.839 180.145C203.839 180.145 226.82 180.145 255.17 180.145C283.52 180.145 306.501 180.145 306.501 180.145Z"
                stroke="#9181C9" stroke-miterlimit="10" stroke-width="0.5" />
            <path
                d="M306.501 172.366C306.501 172.366 283.52 172.366 255.17 172.366C226.82 172.366 203.839 172.366 203.839 172.366C203.839 172.366 226.82 172.366 255.17 172.366C283.52 172.366 306.501 172.366 306.501 172.366Z"
                stroke="#9181C9" stroke-miterlimit="10" stroke-width="0.5" />
            <path
                d="M306.501 164.59C306.501 164.59 283.52 164.59 255.17 164.59C226.82 164.59 203.839 164.59 203.839 164.59C203.839 164.59 226.82 164.59 255.17 164.59C283.52 164.59 306.501 164.59 306.501 164.59Z"
                stroke="#9181C9" stroke-miterlimit="10" stroke-width="0.5" />
            <path
                d="M282.392 140.481C282.392 140.481 282.392 163.463 282.392 191.812C282.392 220.162 282.392 243.143 282.392 243.143C282.392 243.143 282.392 220.162 282.392 191.812C282.392 163.463 282.392 140.481 282.392 140.481Z"
                stroke="#9181C9" stroke-miterlimit="10" stroke-width="0.5" />
            <path
                d="M274.616 140.481C274.616 140.481 274.616 163.463 274.616 191.812C274.616 220.162 274.616 243.143 274.616 243.143C274.616 243.143 274.616 220.162 274.616 191.812C274.616 163.463 274.616 140.481 274.616 140.481Z"
                stroke="#9181C9" stroke-miterlimit="10" stroke-width="0.5" />
            <path
                d="M266.837 140.481C266.837 140.481 266.837 163.463 266.837 191.812C266.837 220.162 266.837 243.143 266.837 243.143C266.837 243.143 266.837 220.162 266.837 191.812C266.837 163.463 266.837 140.481 266.837 140.481Z"
                stroke="#9181C9" stroke-miterlimit="10" stroke-width="0.5" />
            <path
                d="M259.058 140.481C259.058 140.481 259.058 163.463 259.058 191.812C259.058 220.162 259.058 243.143 259.058 243.143C259.058 243.143 259.058 220.162 259.058 191.812C259.058 163.463 259.058 140.481 259.058 140.481Z"
                stroke="#9181C9" stroke-miterlimit="10" stroke-width="0.5" />
            <path
                d="M251.279 140.481C251.279 140.481 251.279 163.463 251.279 191.812C251.279 220.162 251.279 243.143 251.279 243.143C251.279 243.143 251.279 220.162 251.279 191.812C251.279 163.463 251.279 140.481 251.279 140.481Z"
                stroke="#9181C9" stroke-miterlimit="10" stroke-width="0.5" />
            <path
                d="M243.503 140.481C243.503 140.481 243.503 163.463 243.503 191.812C243.503 220.162 243.503 243.143 243.503 243.143C243.503 243.143 243.503 220.162 243.503 191.812C243.503 163.463 243.503 140.481 243.503 140.481Z"
                stroke="#9181C9" stroke-miterlimit="10" stroke-width="0.5" />
            <path
                d="M235.724 140.481C235.724 140.481 235.724 163.463 235.724 191.812C235.724 220.162 235.724 243.143 235.724 243.143C235.724 243.143 235.724 220.162 235.724 191.812C235.724 163.463 235.724 140.481 235.724 140.481Z"
                stroke="#9181C9" stroke-miterlimit="10" stroke-width="0.5" />
            <path
                d="M227.945 140.481C227.945 140.481 227.945 163.463 227.945 191.812C227.945 220.162 227.945 243.143 227.945 243.143C227.945 243.143 227.945 220.162 227.945 191.812C227.945 163.463 227.945 140.481 227.945 140.481Z"
                stroke="#9181C9" stroke-miterlimit="10" stroke-width="0.5" />
        </g>
        <path
            d="M248.904 180.485L243.036 210.518C242.953 210.945 242.843 211.36 242.711 211.766C241.31 216.026 237.265 218.947 232.681 218.837L206.737 218.217V208.715L228.903 205.615C229.548 205.525 230.053 205.019 230.146 204.377L231.236 196.618L231.811 192.532L233.887 177.77C234.262 175.102 236.032 172.837 238.53 171.827C239.45 171.454 240.408 171.276 241.353 171.276C243.828 171.276 246.221 172.497 247.651 174.664L247.796 174.885C248.887 176.535 249.284 178.545 248.904 180.485Z"
            fill="white" />
        <path
            d="M206.737 208.715H205.782C205.277 208.715 204.789 208.532 204.409 208.197L197.568 202.194C197.043 201.731 196.333 201.539 195.645 201.674L191.517 202.474C190.174 202.734 189.367 204.114 189.799 205.412L192.022 212.081C192.895 214.698 195.345 216.466 198.108 216.466H206.737V208.715Z"
            fill="#A76644" />
        <path
            d="M231.931 192.921L231.356 197.007L227.815 197.985C224.552 198.885 221.132 199.042 217.801 198.447L194.837 194.352L196.628 184.597L220.844 187.6C222.064 187.75 223.254 187.148 223.855 186.078L230.573 174.108C230.761 174.583 230.861 175.096 230.861 175.621V184.817C230.861 187.568 231.223 190.291 231.931 192.921Z"
            fill="white" />
        <path
            d="M196.508 184.209L193.628 183.386C193.225 183.271 192.872 183.028 192.62 182.696L187.782 176.307C187.149 175.472 186.119 175.037 185.079 175.167L180.46 175.745C178.653 175.97 177.612 177.915 178.428 179.545L182.731 188.154C183.373 189.439 184.616 190.32 186.041 190.497L195.148 191.64L196.508 184.209Z"
            fill="#A76644" />
        <path
            d="M238.242 157.707L229.396 166.553L228.313 164.75L226.433 166.256C225.813 166.751 225.045 167.016 224.262 167.016C224.085 167.016 223.91 167.003 223.735 166.976C222.64 166.806 221.69 166.126 221.179 165.14L218.812 160.575C218.634 160.235 218.214 160.105 217.879 160.285L216.286 161.142C215.799 161.405 215.174 161.082 215.174 160.52L215.546 151.801C215.719 151.756 215.886 151.703 216.056 151.646C216.719 151.423 217.366 151.136 217.986 150.781L226.905 145.705L228.571 148.563C228.771 148.908 229.223 149.01 229.551 148.783C229.736 148.655 229.846 148.445 229.846 148.22V145.837C229.846 145.35 230.131 144.905 230.576 144.7C230.746 144.622 230.924 144.585 231.099 144.585C231.606 144.585 232.091 144.897 232.276 145.41L233.044 147.528C233.174 147.883 233.134 148.28 232.936 148.605L232.364 149.545C231.826 150.43 231.721 151.511 232.079 152.481C232.286 153.038 232.629 153.518 233.066 153.891C233.504 154.264 234.037 154.524 234.617 154.636L237.447 155.184L238.242 157.707Z"
            fill="#A76644" />
        <path
            d="M228.313 164.75L228.458 164.633C228.811 164.353 229.106 164.003 229.323 163.608L231.829 159.097L231.554 162.342C231.504 162.93 231.584 163.523 231.789 164.075L231.811 164.135L229.396 166.551L228.313 164.75Z"
            fill="#914726" />
        <path d="M203.237 280.977L207.402 260.473H223.99L219.049 280.977" fill="#42366F" />
        <path d="M269.98 277.569H286.57L296.174 294.229H279.499L269.98 277.569Z" fill="#42366F" />
        <path
            d="M237.905 139.381L237.435 139.591L227.716 143.914C225.18 145.042 222.507 145.832 219.764 146.265L214.143 147.15C213.981 146.387 213.893 145.6 213.881 144.79V144.78C213.878 144.712 213.878 144.642 213.878 144.575C213.878 137.631 219.507 132 226.45 132C231.541 132 235.927 135.028 237.905 139.381Z"
            fill="#42366F" />
        <path
            d="M237.927 139.431L237.922 139.434L237.905 139.381C237.912 139.396 237.92 139.414 237.927 139.431Z"
            fill="black" />
        <path
            d="M366.746 263.439L365.879 265.397C365.054 267.26 364.626 269.277 364.626 271.315V294.229H329.12V271.315C329.12 269.277 328.693 267.26 327.868 265.397L327 263.439H366.746Z"
            fill="#9181C9" />
        <path
            d="M366.746 263.439L365.879 265.397C365.054 267.26 364.626 269.277 364.626 271.315H329.12C329.12 269.277 328.695 267.26 327.87 265.397L327 263.439H366.746Z"
            fill="#42366F" />
        <path
            d="M351.076 263.316V271.27C351.076 273.591 349.191 275.476 346.873 275.476C344.555 275.476 342.67 273.591 342.67 271.27V263.316H338.919V271.27C338.919 275.663 342.48 279.226 346.873 279.226C349.069 279.226 351.059 278.336 352.497 276.896C353.937 275.456 354.827 273.468 354.827 271.27V263.316H351.076Z"
            fill="white" />
        <path
            d="M239.55 145.462C239.55 146.225 239.392 146.982 239.075 147.69C238.762 148.39 238.6 149.15 238.6 149.918V153.341C238.6 153.734 238.487 154.109 238.287 154.429C238.087 154.749 237.8 155.014 237.447 155.184L234.617 154.636C234.037 154.524 233.504 154.264 233.066 153.891C232.629 153.519 232.286 153.038 232.079 152.481C231.721 151.511 231.826 150.431 232.364 149.545L232.936 148.605C233.134 148.28 233.174 147.883 233.044 147.528L232.276 145.41C232.091 144.897 231.606 144.585 231.099 144.585C230.924 144.585 230.746 144.622 230.576 144.7C230.131 144.905 229.846 145.35 229.846 145.837V148.22C229.846 148.445 229.736 148.655 229.551 148.783C229.223 149.01 228.771 148.908 228.571 148.563L226.905 145.705L237.485 139.681H237.487L237.922 139.434L239.3 143.827C239.468 144.36 239.55 144.912 239.55 145.462Z"
            fill="#003C51" />
        <path
            d="M237.922 139.434L237.487 139.681H237.485L226.905 145.705L217.986 150.781C217.366 151.136 216.719 151.423 216.056 151.646C215.596 151.801 215.129 151.923 214.656 152.016H214.653C211.845 152.566 208.885 152.003 206.432 150.356L205.394 149.658C204.907 149.33 205.072 148.575 205.652 148.485L214.061 147.162H214.063L214.143 147.15L219.764 146.265C222.507 145.832 225.18 145.042 227.716 143.914L237.435 139.591L237.905 139.381L237.922 139.434Z"
            fill="#42366F" />
        <path
            d="M164.08 280.977H226.218C230.901 280.977 235.559 281.632 240.06 282.922L264.834 290.026C274.563 292.814 284.635 294.229 294.754 294.229H381.238V296.152C381.238 302.525 379.228 308.736 375.492 313.902L370.126 321.323C367.936 324.354 366.756 327.997 366.756 331.735H210.84C210.84 326.274 208.235 321.143 203.827 317.92L170.451 293.524C166.446 290.596 164.08 285.935 164.08 280.977Z"
            fill="white" />
        <path
            d="M367.218 327.727C366.913 329.035 366.758 334.142 366.758 335.5H210.84V331.735C210.84 329.005 210.188 326.357 208.988 323.986C207.785 321.618 206.032 319.531 203.827 317.918L205.957 318.713C217.894 323.169 230.499 325.574 243.236 325.832L367.218 327.727Z"
            fill="#9181C9" />
        <path
            d="M200.036 299.542C198.541 299.542 197.326 298.33 197.326 296.832V291.621C197.326 290.126 198.538 288.911 200.036 288.911C201.531 288.911 202.747 290.123 202.747 291.621V296.832C202.747 298.33 201.534 299.542 200.036 299.542Z"
            fill="#9181C9" />
        <path
            d="M212.976 299.542C211.481 299.542 210.265 298.33 210.265 296.832V291.621C210.265 290.126 211.478 288.911 212.976 288.911C214.471 288.911 215.686 290.123 215.686 291.621V296.832C215.686 298.33 214.473 299.542 212.976 299.542Z"
            fill="#9181C9" />
        <path
            d="M225.915 299.542C224.42 299.542 223.205 298.33 223.205 296.832V291.621C223.205 290.126 224.418 288.911 225.915 288.911C227.411 288.911 228.626 290.123 228.626 291.621V296.832C228.626 298.33 227.413 299.542 225.915 299.542Z"
            fill="#9181C9" />
        <path d="M41.5906 117.271V136.39H64.2303V117.271" fill="#42366F" />
        <path
            d="M71.8218 244.867H34L39.8841 162.722L39.9984 161.126H65.8234L65.9378 162.722L71.8218 244.867Z"
            fill="#42366F" />
        <path
            d="M65.8234 161.126H39.9984L40.0091 160.937L40.4002 154.252L41.2048 140.479L41.3691 138.736L41.5906 136.389H64.2303L64.4518 138.736L64.6161 140.48L65.4216 154.252L65.8127 160.937L65.8234 161.126Z"
            fill="#9181C9" />
        <path
            d="M58.7168 189.487H47.105V178.433C47.105 175.226 49.7045 172.627 52.9114 172.627C56.1182 172.627 58.7177 175.226 58.7177 178.433V189.487H58.7168Z"
            fill="#003C51" />
        <path d="M60.1242 189.487H45.6976V192.429H60.1242V189.487Z" fill="#9181C9" />
        <path d="M52.9105 172.628V189.487" stroke="#9181C9" stroke-miterlimit="10" />
        <path d="M47.105 181.058H58.7168" stroke="#9181C9" stroke-miterlimit="10" />
        <path
            d="M58.7168 243.528H47.105V232.474C47.105 229.267 49.7045 226.667 52.9114 226.667C56.1182 226.667 58.7177 229.267 58.7177 232.474V243.528H58.7168Z"
            fill="#003C51" />
        <path d="M60.1242 243.528H45.6976V246.47H60.1242V243.528Z" fill="#9181C9" />
        <path
            d="M55.9735 150.344H49.8483V144.514C49.8483 142.822 51.2191 141.452 52.9105 141.452C54.6018 141.452 55.9726 142.822 55.9726 144.514V150.344H55.9735Z"
            fill="#003C51" />
        <path d="M56.7156 150.344H49.1053V151.896H56.7156V150.344Z" fill="#42366F" />
        <path d="M52.9105 141.451V150.344" stroke="#9181C9" stroke-miterlimit="10" />
        <path d="M49.8483 145.897H55.9735" stroke="#9181C9" stroke-miterlimit="10" />
        <path
            d="M66.8334 138.614L64.6161 140.48L64.4518 138.736C65.2457 138.699 66.0396 138.658 66.8334 138.614Z"
            fill="#42366F" />
        <path
            d="M41.3692 138.736L41.2048 140.479L38.9875 138.614C39.7814 138.658 40.5753 138.699 41.3692 138.736Z"
            fill="#42366F" />
        <path
            d="M66.8335 131.914V138.614C66.0396 138.658 65.2457 138.699 64.4518 138.736C60.6065 138.915 56.7576 139.005 52.9105 139.005C49.0634 139.005 45.2145 138.915 41.3692 138.736C40.5753 138.699 39.7814 138.658 38.9875 138.614V131.914C43.6258 132.175 48.2686 132.305 52.9105 132.305C57.5524 132.305 62.1951 132.175 66.8335 131.914Z"
            stroke="white" stroke-miterlimit="10" />
        <path d="M38.9875 131.914V138.614" stroke="white" stroke-miterlimit="10" />
        <path d="M40.9763 131.97V138.67" stroke="white" stroke-miterlimit="10" />
        <path d="M42.9659 132.026V138.725" stroke="white" stroke-miterlimit="10" />
        <path d="M44.9546 132.082V138.781" stroke="white" stroke-miterlimit="10" />
        <path d="M46.9434 132.137V138.837" stroke="white" stroke-miterlimit="10" />
        <path d="M48.933 132.194V138.893" stroke="white" stroke-miterlimit="10" />
        <path d="M50.9218 132.249V138.948" stroke="white" stroke-miterlimit="10" />
        <path d="M52.9105 132.305V139.005" stroke="white" stroke-miterlimit="10" />
        <path d="M54.9001 132.249V138.948" stroke="white" stroke-miterlimit="10" />
        <path d="M56.8889 132.194V138.893" stroke="white" stroke-miterlimit="10" />
        <path d="M58.8776 132.137V138.837" stroke="white" stroke-miterlimit="10" />
        <path d="M60.8663 132.082V138.781" stroke="white" stroke-miterlimit="10" />
        <path d="M62.856 132.026V138.725" stroke="white" stroke-miterlimit="10" />
        <path d="M64.8447 131.97V138.67" stroke="white" stroke-miterlimit="10" />
        <path d="M66.8334 131.914V138.614" stroke="white" stroke-miterlimit="10" />
        <path
            d="M40.0091 160.937L39.9984 161.126L39.8841 162.722C39.6733 162.712 39.4626 162.701 39.2518 162.69L36.6094 160.792C37.7426 160.846 38.8758 160.894 40.0091 160.937Z"
            fill="#42366F" />
        <path
            d="M69.2116 160.792L66.5707 162.69C66.5703 162.69 66.5697 162.69 66.5691 162.69C66.3584 162.701 66.1485 162.712 65.9378 162.722L65.8235 161.126L65.8127 160.937C66.946 160.894 68.0792 160.846 69.2116 160.792Z"
            fill="#42366F" />
        <path
            d="M69.2115 154.092V160.792C68.0792 160.846 66.946 160.894 65.8127 160.937C63.5659 161.023 61.3191 161.086 59.0714 161.126C57.0174 161.164 54.9644 161.183 52.9105 161.183C50.8565 161.183 48.8035 161.164 46.7495 161.126C44.5027 161.086 42.2559 161.023 40.0091 160.937C38.8758 160.894 37.7426 160.846 36.6094 160.792V154.092C37.873 154.153 39.1366 154.207 40.4002 154.252C44.5697 154.407 48.7401 154.483 52.9105 154.483C57.0808 154.483 61.2521 154.407 65.4216 154.252C66.6852 154.207 67.9488 154.153 69.2115 154.092Z"
            stroke="white" stroke-miterlimit="10" />
        <path d="M36.6094 154.093V160.792" stroke="white" stroke-miterlimit="10" />
        <path d="M38.9384 154.148V160.848" stroke="white" stroke-miterlimit="10" />
        <path d="M41.2673 154.205V160.904" stroke="white" stroke-miterlimit="10" />
        <path d="M43.5955 154.26V160.959" stroke="white" stroke-miterlimit="10" />
        <path d="M45.9244 154.316V161.016" stroke="white" stroke-miterlimit="10" />
        <path d="M48.2534 154.372V161.071" stroke="white" stroke-miterlimit="10" />
        <path d="M50.5824 154.428V161.127" stroke="white" stroke-miterlimit="10" />
        <path d="M52.9105 154.484V161.184" stroke="white" stroke-miterlimit="10" />
        <path d="M55.2394 154.428V161.127" stroke="white" stroke-miterlimit="10" />
        <path d="M57.5684 154.372V161.071" stroke="white" stroke-miterlimit="10" />
        <path d="M59.8965 154.316V161.016" stroke="white" stroke-miterlimit="10" />
        <path d="M62.2255 154.26V160.959" stroke="white" stroke-miterlimit="10" />
        <path d="M64.5544 154.205V160.904" stroke="white" stroke-miterlimit="10" />
        <path d="M66.8834 154.148V160.848" stroke="white" stroke-miterlimit="10" />
        <path d="M69.2115 154.093V160.792" stroke="white" stroke-miterlimit="10" />
        <path
            d="M41.5906 117.271L49.1714 117.969C51.6585 118.198 54.1616 118.198 56.6495 117.969L64.2303 117.271L52.9105 107L41.5906 117.271Z"
            fill="white" />
        <path
            d="M52.9105 129.468C55.0499 129.468 56.7843 127.734 56.7843 125.594C56.7843 123.455 55.0499 121.72 52.9105 121.72C50.771 121.72 49.0366 123.455 49.0366 125.594C49.0366 127.734 50.771 129.468 52.9105 129.468Z"
            fill="white" />
    </g>
</svg>
