<svg fill="none" height="16" viewBox="0 0 16 16" width="16" xmlns="http://www.w3.org/2000/svg">
    <path
        d="M15 2C14.7348 2 14.4804 2.10536 14.2929 2.29289C14.1054 2.48043 14 2.73478 14 3V7C14 7.13261 13.9473 7.25978 13.8536 7.35355C13.7598 7.44732 13.6326 7.5 13.5 7.5C13.3674 7.5 13.2402 7.44732 13.1464 7.35355C13.0527 7.25978 13 7.13261 13 7V1.553C13.0055 1.30955 12.9251 1.07193 12.773 0.881779C12.6209 0.691628 12.4067 0.561076 12.168 0.512999C12.0244 0.488531 11.8772 0.49572 11.7367 0.534062C11.5962 0.572404 11.4658 0.640974 11.3546 0.734978C11.2433 0.828983 11.1539 0.946152 11.0927 1.07829C11.0315 1.21043 10.9998 1.35436 11 1.5V7C11 7.13261 10.9473 7.25978 10.8536 7.35355C10.7598 7.44732 10.6326 7.5 10.5 7.5C10.3674 7.5 10.2402 7.44732 10.1464 7.35355C10.0527 7.25978 10 7.13261 10 7V1.053C10.0053 0.809719 9.9248 0.572338 9.7727 0.382395C9.6206 0.192452 9.40655 0.0620468 9.168 0.0139994C9.02451 -0.0104544 8.87741 -0.0032886 8.73698 0.0349963C8.59655 0.0732811 8.46616 0.141762 8.35494 0.235656C8.24371 0.32955 8.15433 0.446594 8.09302 0.578612C8.03172 0.710631 7.99997 0.854441 8 0.999999V7C8 7.13261 7.94732 7.25978 7.85356 7.35355C7.75979 7.44732 7.63261 7.5 7.5 7.5C7.36739 7.5 7.24022 7.44732 7.14645 7.35355C7.05268 7.25978 7 7.13261 7 7V1.553C7.00526 1.30972 6.9248 1.07234 6.7727 0.882395C6.6206 0.692452 6.40655 0.562047 6.168 0.513999C6.02451 0.489546 5.87741 0.496711 5.73698 0.534996C5.59655 0.573281 5.46617 0.641762 5.35494 0.735656C5.24371 0.82955 5.15433 0.946594 5.09302 1.07861C5.03172 1.21063 4.99997 1.35444 5 1.5V9.293C5.00018 9.39202 4.97095 9.48886 4.91602 9.57125C4.86109 9.65364 4.78294 9.71787 4.69147 9.75578C4.59999 9.7937 4.49932 9.8036 4.40221 9.78424C4.3051 9.76487 4.21593 9.71711 4.146 9.647L2.146 7.647C1.99177 7.48195 1.7897 7.36937 1.56819 7.32507C1.34668 7.28076 1.11685 7.30697 0.911002 7.4C0.784982 7.4621 0.672968 7.54927 0.581822 7.65618C0.490676 7.76309 0.422318 7.88748 0.380937 8.02174C0.339555 8.15599 0.326021 8.29728 0.341164 8.43695C0.356307 8.57662 0.399809 8.71173 0.469002 8.834L2.78 12.942C3.30196 13.8698 4.06136 14.6419 4.98026 15.1793C5.89916 15.7167 6.9445 16 8.009 16H10C11.5913 16 13.1174 15.3679 14.2426 14.2426C15.3679 13.1174 16 11.5913 16 10V3C16 2.73478 15.8946 2.48043 15.7071 2.29289C15.5196 2.10536 15.2652 2 15 2Z"
        fill="#0D7EE6" />
</svg>
