<svg fill="none" height="26" viewBox="0 0 36 26" width="36" xmlns="http://www.w3.org/2000/svg">
    <rect fill="#CBDAFF" height="4" rx="2" width="36" y="11.5" />
    <path
        d="M7 13C7 6.92487 11.9249 2 18 2C24.0751 2 29 6.92487 29 13C29 19.0751 24.0751 24 18 24C11.9249 24 7 19.0751 7 13Z"
        fill="#DBF4FF" />
    <path
        d="M18.0351 7C15.2298 7 13 9.32137 13 12.2418C13 13.6646 13.5035 15.0125 14.5105 15.986C14.5825 16.0608 17.4597 18.7566 17.5316 18.8315C17.8193 19.0562 18.2509 19.0562 18.4667 18.8315C18.5386 18.7566 21.4878 16.0608 21.4878 15.986C22.4948 15.0125 22.9983 13.6646 22.9983 12.2418C23.0702 9.32137 20.8404 7 18.0351 7ZM18.0351 13.7395C17.2439 13.7395 16.5965 13.0655 16.5965 12.2418C16.5965 11.4181 17.2439 10.7441 18.0351 10.7441C18.8264 10.7441 19.4737 11.4181 19.4737 12.2418C19.4737 13.0655 18.8264 13.7395 18.0351 13.7395Z"
        fill="#0081B9" />
    <path
        d="M18 22C13.0294 22 9 17.9706 9 13H5C5 20.1797 10.8203 26 18 26V22ZM27 13C27 17.9706 22.9706 22 18 22V26C25.1797 26 31 20.1797 31 13H27ZM18 4C22.9706 4 27 8.02944 27 13H31C31 5.8203 25.1797 0 18 0V4ZM18 0C10.8203 0 5 5.8203 5 13H9C9 8.02944 13.0294 4 18 4V0Z"
        fill="white" />
</svg>
