<svg fill="none" height="26" viewBox="0 0 27 26" width="27" xmlns="http://www.w3.org/2000/svg">
    <rect fill="#48484A" height="24" rx="12" width="24" x="1.5" y="1" />
    <path
        d="M13.5351 7C10.7298 7 8.5 9.32137 8.5 12.2418C8.5 13.6646 9.00351 15.0125 10.0105 15.986C10.0825 16.0608 12.9597 18.7566 13.0316 18.8315C13.3193 19.0562 13.7509 19.0562 13.9667 18.8315C14.0386 18.7566 16.9878 16.0608 16.9878 15.986C17.9948 15.0125 18.4983 13.6646 18.4983 12.2418C18.5702 9.32137 16.3404 7 13.5351 7ZM13.5351 13.7395C12.7439 13.7395 12.0965 13.0655 12.0965 12.2418C12.0965 11.4181 12.7439 10.7441 13.5351 10.7441C14.3264 10.7441 14.9737 11.4181 14.9737 12.2418C14.9737 13.0655 14.3264 13.7395 13.5351 13.7395Z"
        fill="#6AC1E7" />
    <rect height="24" rx="12" stroke="#29292C" stroke-width="2" width="24" x="1.5" y="1" />
</svg>
