<svg fill="none" height="26" viewBox="0 0 26 26" width="26" xmlns="http://www.w3.org/2000/svg">
    <path
        d="M2 13C2 6.92487 6.92487 2 13 2C19.0751 2 24 6.92487 24 13C24 19.0751 19.0751 24 13 24C6.92487 24 2 19.0751 2 13Z"
        fill="#DBF4FF" />
    <path
        d="M13.0351 7C10.2298 7 8 9.32137 8 12.2418C8 13.6646 8.50351 15.0125 9.51054 15.986C9.58247 16.0608 12.4597 18.7566 12.5316 18.8315C12.8193 19.0562 13.2509 19.0562 13.4667 18.8315C13.5386 18.7566 16.4878 16.0608 16.4878 15.986C17.4948 15.0125 17.9983 13.6646 17.9983 12.2418C18.0702 9.32137 15.8404 7 13.0351 7ZM13.0351 13.7395C12.2439 13.7395 11.5965 13.0655 11.5965 12.2418C11.5965 11.4181 12.2439 10.7441 13.0351 10.7441C13.8264 10.7441 14.4737 11.4181 14.4737 12.2418C14.4737 13.0655 13.8264 13.7395 13.0351 13.7395Z"
        fill="#0081B9" />
    <path
        d="M13 22C8.02944 22 4 17.9706 4 13H0C0 20.1797 5.8203 26 13 26V22ZM22 13C22 17.9706 17.9706 22 13 22V26C20.1797 26 26 20.1797 26 13H22ZM13 4C17.9706 4 22 8.02944 22 13H26C26 5.8203 20.1797 0 13 0V4ZM13 0C5.8203 0 0 5.8203 0 13H4C4 8.02944 8.02944 4 13 4V0Z"
        fill="white" />
</svg>
