<svg fill="none" height="16" viewBox="0 0 14 14" width="16" xmlns="http://www.w3.org/2000/svg">
    <path
        d="M6.99998 0.599976C3.43426 0.599976 0.599976 3.43426 0.599976 6.99998C0.599976 10.5657 3.43426 13.4 6.99998 13.4C10.5657 13.4 13.4 10.5657 13.4 6.99998C13.4 3.43426 10.5657 0.599976 6.99998 0.599976ZM6.99998 2.88569C7.36569 2.88569 7.7314 3.15998 7.7314 3.61712C7.7314 4.07426 7.36569 4.25712 6.99998 4.25712C6.63426 4.25712 6.26855 3.98283 6.26855 3.52569C6.26855 3.06855 6.63426 2.88569 6.99998 2.88569ZM8.82855 10.7485H5.1714V9.74283H6.4514V6.63426H5.62855V5.53712H7.54855V9.6514H8.82855V10.7485Z"
        fill="#0D7EE6" />
</svg>
