<svg fill="none" height="18" viewBox="0 0 26 18" width="26" xmlns="http://www.w3.org/2000/svg">
    <path clip-rule="evenodd"
        d="M0.199997 2C0.199997 0.895432 1.09543 0 2.2 0H23.8C24.9046 0 25.8 0.895431 25.8 2V15.0667C25.8 16.1712 24.9046 17.0667 23.8 17.0667H2.2C1.09543 17.0667 0.199997 16.1712 0.199997 15.0667V2ZM4.94074 10.5333C4.94074 9.42876 5.83617 8.53333 6.94074 8.53333H9.57778C10.6823 8.53333 11.5778 9.42877 11.5778 10.5333V12.3259H4.94074V10.5333ZM8.25926 3.79259C7.21197 3.79259 6.36297 4.64159 6.36297 5.68889C6.36297 6.73618 7.21197 7.58518 8.25926 7.58518C9.30656 7.58518 10.1556 6.73618 10.1556 5.68889C10.1556 4.64159 9.30656 3.79259 8.25926 3.79259ZM14.4222 6.63703H21.0593V8.53333H14.4222V6.63703ZM21.0593 10.4296H14.4222V12.3259H21.0593V10.4296Z"
        fill="#72C4AE" fill-rule="evenodd" />
</svg>
