<svg fill="none" height="26" viewBox="0 0 36 26" width="36" xmlns="http://www.w3.org/2000/svg">
    <rect fill="#48484A" height="4" rx="2" width="36" y="11.5" />
    <rect fill="#48484A" height="24" rx="12" width="24" x="6" y="1" />
    <path
        d="M18.0351 7C15.2298 7 13 9.32137 13 12.2418C13 13.6646 13.5035 15.0125 14.5105 15.986C14.5825 16.0608 17.4597 18.7566 17.5316 18.8315C17.8193 19.0562 18.2509 19.0562 18.4667 18.8315C18.5386 18.7566 21.4878 16.0608 21.4878 15.986C22.4948 15.0125 22.9983 13.6646 22.9983 12.2418C23.0702 9.32137 20.8404 7 18.0351 7ZM18.0351 13.7395C17.2439 13.7395 16.5965 13.0655 16.5965 12.2418C16.5965 11.4181 17.2439 10.7441 18.0351 10.7441C18.8264 10.7441 19.4737 11.4181 19.4737 12.2418C19.4737 13.0655 18.8264 13.7395 18.0351 13.7395Z"
        fill="#6AC1E7" />
    <rect height="24" rx="12" stroke="#29292C" stroke-width="2" width="24" x="6" y="1" />
</svg>
