<svg fill="none" height="46" viewBox="0 0 40 46" width="40" xmlns="http://www.w3.org/2000/svg">
    <path d="M0 4C0 1.79086 1.79086 0 4 0H39.0909V46H4C1.79086 46 0 44.2091 0 42V4Z"
        fill="#00C300" />
    <path clip-rule="evenodd"
        d="M32.0909 21.2204C32.0909 15.5848 26.4633 11 19.5453 11C12.6284 11 7 15.5848 7 21.2204C7 26.2726 11.4632 30.5037 17.492 31.3038C17.9006 31.3922 18.4566 31.5742 18.5973 31.9248C18.7238 32.2432 18.68 32.742 18.6377 33.0636C18.6377 33.0636 18.4905 33.9523 18.4588 34.1416L18.4539 34.1696C18.3943 34.5106 18.2441 35.3711 19.5453 34.8205C20.8844 34.2541 26.7704 30.5498 29.4024 27.5085H29.4019C31.2201 25.507 32.0909 23.4758 32.0909 21.2204ZM16.9963 18.4969H16.1163C15.9814 18.4969 15.8718 18.6067 15.8718 18.7417V24.2295C15.8718 24.3647 15.9814 24.4743 16.1163 24.4743H16.9963C17.1312 24.4743 17.2407 24.3647 17.2407 24.2295V18.7417C17.2407 18.6067 17.1312 18.4969 16.9963 18.4969ZM22.1731 18.4969H23.0531C23.1882 18.4969 23.2974 18.6067 23.2974 18.7417V24.2295C23.2974 24.3647 23.1882 24.4743 23.0531 24.4743H22.1731C22.1514 24.4743 22.1305 24.4712 22.1106 24.4658C22.1094 24.4656 22.1082 24.4651 22.1069 24.4651C22.1014 24.4634 22.0961 24.4617 22.0904 24.4596L22.0877 24.4587L22.0832 24.4569L22.0831 24.4569L22.0759 24.4539L22.0711 24.4518C22.0673 24.4502 22.0632 24.4482 22.0596 24.4461C22.0572 24.4448 22.055 24.4439 22.0526 24.4424L22.0433 24.4369L22.0374 24.4333C22.0367 24.4325 22.0358 24.4318 22.035 24.4313C22.0117 24.4154 21.9903 24.3954 21.973 24.3707L19.4648 20.9701V24.2295C19.4648 24.3647 19.3554 24.4743 19.2203 24.4743H18.3405C18.2056 24.4743 18.0959 24.3647 18.0959 24.2295V18.7417C18.0959 18.6067 18.2056 18.4969 18.3405 18.4969H19.2203L19.2246 18.4971L19.2289 18.4974L19.2331 18.4976H19.2331C19.2359 18.4977 19.2387 18.4978 19.2414 18.4981L19.2447 18.4984C19.2479 18.4987 19.2512 18.4991 19.2544 18.4998C19.2578 18.5 19.2614 18.5005 19.2647 18.501L19.2728 18.5028L19.2787 18.5041C19.2816 18.5051 19.2845 18.5056 19.2871 18.5066C19.2922 18.5078 19.297 18.5094 19.3018 18.5111L19.3097 18.514C19.3145 18.5157 19.3191 18.5179 19.3237 18.5201C19.3253 18.5207 19.3269 18.5215 19.3285 18.5223L19.3314 18.5237C19.3357 18.5259 19.34 18.5285 19.3443 18.5312C19.347 18.5324 19.3494 18.5338 19.3518 18.5355L19.356 18.5383L19.3596 18.5408L19.3646 18.5442L19.3663 18.5455L19.3682 18.547L19.3708 18.5493C19.3754 18.5527 19.3797 18.5563 19.3838 18.5601L19.3844 18.5607L19.3884 18.5643C19.3934 18.5691 19.3982 18.5739 19.403 18.5795L19.4047 18.5809C19.4114 18.5889 19.4179 18.5971 19.4237 18.6058L21.9287 22.002V18.7417C21.9287 18.6067 22.0382 18.4969 22.1731 18.4969ZM14.8754 23.1002H12.4844V18.7421C12.4844 18.6066 12.3749 18.4968 12.2402 18.4968H11.36C11.2251 18.4968 11.1157 18.6066 11.1157 18.7421V24.2289V24.2294C11.1157 24.2953 11.1419 24.3549 11.184 24.3989C11.1849 24.4001 11.1859 24.4013 11.1873 24.4025L11.191 24.4059C11.235 24.4484 11.2941 24.4744 11.3598 24.4744H11.36H14.8754C15.0103 24.4744 15.1192 24.3643 15.1192 24.2289V23.3455C15.1192 23.21 15.0103 23.1002 14.8754 23.1002ZM28.1568 19.6257C28.1568 19.7614 28.0478 19.871 27.9129 19.871H25.5221V20.7984H27.9129C28.0478 20.7984 28.1568 20.9085 28.1568 21.0439V21.9273C28.1568 22.0628 28.0478 22.1726 27.9129 22.1726H25.5221V23.1002H27.9129C28.0478 23.1002 28.1568 23.2103 28.1568 23.3455V24.2291C28.1568 24.3643 28.0478 24.4744 27.9129 24.4744H24.3975H24.3971C24.3316 24.4744 24.2722 24.4481 24.2285 24.4059C24.2273 24.4049 24.2258 24.4037 24.2249 24.4025C24.2237 24.4015 24.2225 24.4001 24.2215 24.3989C24.1794 24.3549 24.1532 24.2953 24.1532 24.2294V24.2291V18.7423V18.7421C24.1532 18.6764 24.1792 18.617 24.221 18.5731C24.2215 18.5725 24.2219 18.572 24.2224 18.5714C24.2232 18.5705 24.224 18.5696 24.2249 18.5687C24.2256 18.5678 24.2268 18.567 24.2277 18.5661C24.2718 18.5233 24.3312 18.4968 24.3971 18.4968H24.3975H27.9129C28.0478 18.4968 28.1568 18.6069 28.1568 18.7423V19.6257Z"
        fill="white" fill-rule="evenodd" />
</svg>
