<svg fill="none" height="68" viewBox="0 0 62 68" width="62" xmlns="http://www.w3.org/2000/svg">
    <defs>
        <linearGradient gradientUnits="userSpaceOnUse" id="paint0_linear" x1="36.6354" x2="36.6354"
            y1="23.5911" y2="67.4094">
            <stop stop-color="#BFB6E0" />
            <stop offset="1" stop-color="#9181C9" />
        </linearGradient>
    </defs>
    <path
        d="M59.2232 51.907L61.9999 67.4094H14.8006L12.0262 51.9094C10.8034 45.0799 11.0674 38.0652 12.802 31.3469L14.1151 26.259L14.8029 23.5911H61.9999L59.999 31.3469C58.2645 38.0629 58.0005 45.0776 59.2232 51.907Z"
        fill="url(#paint0_linear)" />
    <path
        d="M12.4639 26.2567L7.95264 31.4048C7.22083 32.2409 5.93321 32.2779 5.15509 31.4859L0 26.2567H12.4639Z"
        fill="#523D9C" />
    <path
        d="M12.0262 51.907L14.8006 67.407H0.613701L3.77484 49.7579C4.74055 44.3689 4.31443 38.8225 2.53586 33.6442L0 26.2567L5.15509 31.4882C5.93553 32.2779 7.22083 32.2408 7.95264 31.4071L12.4639 26.259L14.8006 23.5911L14.1128 26.259L12.7997 31.3469C11.0675 38.0629 10.8034 45.0776 12.0262 51.907Z"
        fill="#705FAC" />
    <path clip-rule="evenodd"
        d="M35.0692 38.8778V35.2457H30.1858V30.3599H26.5537V35.2457H21.6703V38.8778H26.5537V43.7612H30.1858V38.8778H35.0692ZM39.4512 35.2457H52.3725V38.8778H39.4512V35.2457ZM31.2748 55.0826L34.3911 58.1989L31.8216 60.7684L28.7077 57.6521L28.3686 57.3154L28.0319 57.6521L24.9156 60.7684L22.3485 58.1989L25.4625 55.0826L25.8015 54.7459L25.4625 54.4092L22.3485 51.2929L24.9156 48.7234L28.0319 51.8397L28.3686 52.1788L31.824 48.7234L34.3935 51.2905L30.9381 54.7459L31.2748 55.0826ZM39.4512 51.5007H52.3725V55.1328H39.4512V51.5007ZM48.1672 46.9874C48.1672 48.2387 47.1475 49.2583 45.8962 49.2583C44.6449 49.2583 43.6276 48.2387 43.6276 46.9874C43.6276 45.7361 44.6449 44.7164 45.8962 44.7164C47.1475 44.7164 48.1672 45.7361 48.1672 46.9874ZM45.8962 61.9169C47.1475 61.9169 48.1672 60.8972 48.1672 59.6459C48.1672 58.3946 47.1475 57.3774 45.8962 57.3774C44.6449 57.3774 43.6276 58.3946 43.6276 59.6459C43.6276 60.8972 44.6449 61.9169 45.8962 61.9169Z"
        fill="#523D9C" fill-rule="evenodd" />
    <path
        d="M7.3667 26.9491V14.3532C7.3667 7.98228 12.0609 2.58634 18.3716 1.704C26.0533 0.62945 32.9129 6.5974 32.9129 14.3532V23.5795"
        stroke="#523D9C" stroke-miterlimit="10" />
    <path
        d="M29.3719 23.7027V13.7746C29.3719 7.40368 34.0662 2.00775 40.3769 1.12541C48.0586 0.0508514 54.9181 6.0188 54.9181 13.7746V23.7027"
        stroke="#BCB2DF" stroke-miterlimit="10" />
</svg>
