<svg fill="none" height="29" viewBox="0 0 94 29" width="94" xmlns="http://www.w3.org/2000/svg">
    <g clip-path="url(#clip0)">
        <path
            d="M46.2285 25.2726H39.6675C38.2421 25.2726 37.1221 24.8785 36.3076 24.0905C35.4931 23.3024 35.0859 22.1847 35.0859 20.7374V14.1336C35.0859 12.6993 35.4931 11.5816 36.3076 10.7804C37.1221 9.97926 38.2421 9.58524 39.6675 9.59837H42.2697C43.695 9.59837 44.8097 9.99239 45.6136 10.7804C46.4176 11.5685 46.8142 12.6862 46.8036 14.1336V18.0423C46.8063 18.3601 46.6661 18.519 46.3832 18.519H37.6167C37.4104 18.519 37.3073 18.6096 37.3073 18.7948V20.6704C37.3073 22.454 38.1747 23.3458 39.9094 23.3458H46.2285C46.2866 23.3403 46.3453 23.3476 46.4002 23.3673C46.4552 23.3869 46.5051 23.4184 46.5464 23.4594C46.5877 23.5005 46.6194 23.55 46.6392 23.6046C46.659 23.6592 46.6664 23.7175 46.6608 23.7753V24.8825C46.6608 25.1386 46.5141 25.2726 46.2285 25.2726ZM37.6167 16.872H44.3086C44.3506 16.8779 44.3934 16.8741 44.4337 16.8607C44.4739 16.8473 44.5105 16.8249 44.5405 16.7951C44.5705 16.7653 44.5931 16.7289 44.6066 16.6889C44.62 16.649 44.6239 16.6064 44.618 16.5647V14.1848C44.618 12.4222 43.7506 11.5409 42.0158 11.5409H39.9094C38.1747 11.5409 37.3073 12.4222 37.3073 14.1848V16.5489C37.2985 16.5918 37.3002 16.6362 37.3124 16.6783C37.3245 16.7204 37.3467 16.7589 37.3771 16.7906C37.4075 16.8223 37.4451 16.8463 37.4869 16.8605C37.5286 16.8746 37.5731 16.8786 37.6167 16.872Z"
            fill="#282828" />
        <path
            d="M65.9194 5.49267H68.4264C68.4838 5.48682 68.5417 5.49347 68.5963 5.51216C68.6508 5.53086 68.7006 5.56114 68.7421 5.60091C68.7837 5.64067 68.816 5.68896 68.8368 5.7424C68.8576 5.79584 68.8665 5.85315 68.8627 5.91033V24.8234C68.8682 24.8811 68.8608 24.9394 68.8411 24.994C68.8213 25.0486 68.7896 25.0982 68.7483 25.1392C68.707 25.1803 68.6571 25.2117 68.6021 25.2314C68.5471 25.251 68.4885 25.2583 68.4303 25.2529H67.0697C67.0119 25.2577 66.9537 25.2499 66.8992 25.23C66.8448 25.2101 66.7953 25.1785 66.7545 25.1376C66.7136 25.0966 66.6823 25.0473 66.6628 24.993C66.6432 24.9387 66.6359 24.8808 66.6413 24.8234V8.50694H66.5184L61.7186 20.5679C61.6777 20.6829 61.602 20.7825 61.5018 20.853C61.4017 20.9236 61.282 20.9616 61.1593 20.962H59.6718C59.5511 20.9687 59.432 20.9329 59.3355 20.8607C59.2389 20.7886 59.1712 20.6849 59.1442 20.5679L54.2413 8.47542H54.1183V24.8234C54.1183 25.1097 53.9861 25.2529 53.7216 25.2529H52.361C52.3023 25.2596 52.2427 25.2532 52.1868 25.2341C52.1308 25.215 52.0798 25.1838 52.0376 25.1426C51.9954 25.1014 51.963 25.0514 51.9428 24.9961C51.9226 24.9409 51.915 24.8819 51.9207 24.8234V5.91033C51.9169 5.85278 51.9258 5.79509 51.9469 5.74134C51.9679 5.68759 52.0006 5.63908 52.0426 5.59924C52.0846 5.55941 52.1349 5.52922 52.1899 5.5108C52.2449 5.49239 52.3033 5.4862 52.361 5.49267H54.868C54.9488 5.48592 55.0294 5.50634 55.0971 5.55065C55.1647 5.59496 55.2154 5.66059 55.2409 5.73696L60.2945 18.4717H60.4492L65.5267 5.73696C65.5474 5.65359 65.6 5.5815 65.6733 5.53591C65.7466 5.49033 65.8348 5.47482 65.9194 5.49267Z"
            fill="#282828" />
        <path
            d="M74.5748 6.99783V4.10572C74.5748 3.81808 74.7097 3.67623 74.9715 3.67623H76.3956C76.4537 3.67075 76.5124 3.67809 76.5673 3.69774C76.6223 3.71738 76.6722 3.74885 76.7135 3.78988C76.7548 3.83091 76.7865 3.88049 76.8063 3.93509C76.8261 3.98969 76.8334 4.04795 76.8279 4.10572V6.99783C76.8334 7.0556 76.8261 7.11386 76.8063 7.16846C76.7865 7.22306 76.7548 7.27264 76.7135 7.31367C76.6722 7.3547 76.6223 7.38617 76.5673 7.40581C76.5124 7.42546 76.4537 7.4328 76.3956 7.42732H74.9715C74.7176 7.43126 74.5748 7.28547 74.5748 6.99783ZM74.5748 24.8234V10.0121C74.5748 9.72447 74.7097 9.58262 74.9715 9.58262H76.3956C76.4537 9.57714 76.5124 9.58448 76.5673 9.60412C76.6223 9.62377 76.6722 9.65523 76.7135 9.69626C76.7548 9.73729 76.7865 9.78688 76.8063 9.84147C76.8261 9.89607 76.8334 9.95434 76.8279 10.0121V24.8234C76.8334 24.8811 76.8261 24.9394 76.8063 24.994C76.7865 25.0486 76.7548 25.0982 76.7135 25.1392C76.6722 25.1802 76.6223 25.2117 76.5673 25.2314C76.5124 25.251 76.4537 25.2583 76.3956 25.2529H75.0032C74.9454 25.2577 74.8872 25.2499 74.8327 25.23C74.7782 25.2101 74.7288 25.1785 74.688 25.1376C74.6471 25.0966 74.6158 25.0473 74.5963 24.993C74.5767 24.9387 74.5694 24.8808 74.5748 24.8234Z"
            fill="#282828" />
        <path
            d="M84.095 25.2726H82.7027C82.6421 25.2799 82.5805 25.2732 82.5229 25.2531C82.4653 25.2329 82.4131 25.1998 82.3705 25.1563C82.3279 25.1128 82.296 25.0602 82.2772 25.0024C82.2585 24.9447 82.2534 24.8834 82.2624 24.8234V10.0121C82.2569 9.95435 82.2643 9.89608 82.284 9.84149C82.3038 9.78689 82.3355 9.7373 82.3768 9.69627C82.4181 9.65524 82.468 9.62378 82.523 9.60414C82.5779 9.58449 82.6366 9.57715 82.6948 9.58263H84.095C84.1532 9.57715 84.2118 9.58449 84.2668 9.60414C84.3218 9.62378 84.3717 9.65524 84.413 9.69627C84.4543 9.7373 84.486 9.78689 84.5057 9.84149C84.5255 9.89608 84.5329 9.95435 84.5274 10.0121V11.1942H84.6504C85.1793 10.1067 86.2371 9.56293 87.8238 9.56293H89.5572C90.9615 9.56293 92.0563 9.95695 92.8417 10.745C93.6271 11.533 94.0238 12.6507 94.0317 14.0981V24.8234C94.0373 24.8812 94.0299 24.9394 94.0101 24.994C93.9903 25.0486 93.9586 25.0982 93.9173 25.1392C93.876 25.1803 93.8261 25.2117 93.7711 25.2314C93.7162 25.251 93.6575 25.2584 93.5994 25.2529H92.207C92.1462 25.2643 92.0835 25.2614 92.0239 25.2444C91.9644 25.2275 91.9097 25.1969 91.8642 25.1551C91.8187 25.1134 91.7836 25.0616 91.7619 25.004C91.7402 24.9464 91.7323 24.8846 91.739 24.8234V14.2281C91.739 12.4445 90.8716 11.5527 89.1368 11.5527H87.4033C87.0153 11.5265 86.626 11.5782 86.2587 11.7048C85.8913 11.8314 85.5534 12.0303 85.2652 12.2896C85.006 12.5707 84.8067 12.9009 84.6793 13.2605C84.5518 13.62 84.4988 14.0014 84.5234 14.3818V24.8234C84.5321 24.8823 84.5272 24.9424 84.509 24.9992C84.4909 25.056 84.4601 25.1079 84.4189 25.1512C84.3776 25.1944 84.3271 25.2278 84.271 25.2488C84.2149 25.2698 84.1547 25.278 84.095 25.2726Z"
            fill="#282828" />
        <path
            d="M24.9548 8.94824C24.7684 8.07352 24.3955 6.86781 23.3681 6.45803C23.1103 6.35488 22.8337 6.30583 22.5559 6.31397C22.278 6.3221 22.0049 6.38725 21.7536 6.50531C21.4072 6.67415 21.0977 6.90937 20.8431 7.19744C20.5885 7.48551 20.3938 7.82074 20.2701 8.18384C20.0056 9.07858 19.8904 10.0103 19.9289 10.942C19.9453 11.6607 19.8855 12.3792 19.7504 13.0855C19.5957 13.7632 19.1911 14.634 18.5604 14.8468C18.3684 14.9014 18.1654 14.9054 17.9713 14.8584C17.7773 14.8114 17.5989 14.7151 17.4537 14.5788C17.1444 14.3231 16.8768 14.0214 16.6603 13.6844C17.0861 13.2477 17.4468 12.7528 17.7314 12.2147C18.6724 10.5157 18.9439 8.52991 18.493 6.64322C18.2312 5.70151 17.5727 4.70069 16.5096 4.70069H16.4898C15.1688 4.70069 14.5897 6.22161 14.4469 6.6708C13.8519 8.55028 14.2684 10.7135 14.7206 12.1871C14.8384 12.5783 14.9788 12.9625 15.1411 13.3376C14.9052 13.4729 14.6515 13.575 14.3874 13.641C14.2589 13.6872 14.1222 13.7069 13.9858 13.6987C13.8494 13.6906 13.7161 13.6549 13.594 13.5938C13.2926 13.4046 13.1458 12.9554 13.0189 12.3329C12.8188 11.1616 12.7259 9.97466 12.7412 8.7867V8.51088C12.7412 8.1405 12.7412 7.77012 12.7412 7.40368C12.7412 6.37134 12.7174 5.30354 12.65 4.25151V4.153C12.5825 3.1246 12.5071 1.96224 12.0034 1.00083C11.9059 0.790036 11.767 0.600709 11.5949 0.443958C11.4228 0.287207 11.2209 0.166191 11.001 0.0880124C10.7811 0.00983378 10.5478 -0.0239316 10.3146 -0.0113019C10.0814 0.0013278 9.85315 0.0600982 9.64316 0.16156C8.09612 0.807755 7.86605 2.91971 7.75498 3.93629C7.63469 5.31199 7.60686 6.69413 7.67168 8.07352C7.67168 8.49118 7.69152 8.91278 7.69945 9.33045C7.69945 9.39743 7.69945 9.46835 7.69945 9.54322C7.69945 10.1894 7.74308 11.1626 7.17584 11.3951C7.11109 11.4373 7.03813 11.4654 6.9617 11.4777C6.88528 11.49 6.8071 11.4862 6.73226 11.4665C6.65742 11.4468 6.58759 11.4117 6.52733 11.3634C6.46707 11.3151 6.41772 11.2548 6.38249 11.1863C5.95805 10.477 5.95408 9.43289 5.95012 8.51088C5.95012 8.32175 5.95012 8.13656 5.95012 7.96319C5.95012 7.78982 5.95012 7.50612 5.95012 7.27759C5.95229 6.1681 5.87941 5.05971 5.73194 3.95993C5.58914 3.05368 5.2837 1.78099 4.27615 1.20178C3.85777 0.955563 3.35988 0.879183 2.88621 0.988551C2.41255 1.09792 1.99962 1.3846 1.73346 1.78887C0.975814 2.82909 0.737809 4.25939 0.543438 5.40993C0.298397 6.97588 0.14476 8.55461 0.0832954 10.1382C0.0396611 11.1784 -6.3302e-06 12.2462 -6.3302e-06 13.314C-6.3302e-06 13.6371 -6.3302e-06 13.9641 -6.3302e-06 14.2912C-0.044521 15.6066 0.00718268 16.9234 0.154697 18.2314C0.247437 19.3141 0.694682 20.3369 1.42802 21.1432C1.82199 21.5439 2.27715 21.8803 2.77672 22.1401C2.48537 23.1816 2.48537 24.2823 2.77672 25.3238C2.97455 25.9485 3.31475 26.5195 3.77088 26.9924C4.22701 27.4653 4.78677 27.8274 5.40667 28.0504C7.26708 28.8148 9.44482 28.8897 11.1981 28.9527C11.924 28.9803 12.6738 29 13.4314 29C14.7417 29.0093 16.051 28.9303 17.3505 28.7636C20.4287 28.3696 22.4121 27.1442 23.4038 25.0795C24.3479 23.133 24.6851 20.895 24.9072 18.7476C24.9389 18.4442 24.9707 18.1408 25.0024 17.8453V17.7349C25.3475 14.8113 25.5696 11.8207 24.9548 8.94824ZM17.4973 8.49906C17.4696 9.68112 17.0808 11.4069 16.0772 12.5732C15.6708 11.4662 15.4406 10.303 15.3949 9.12555C15.3235 7.67949 15.5615 6.07189 16.4303 5.90246C16.4725 5.89837 16.515 5.89837 16.5572 5.90246C16.6771 5.90174 16.793 5.94526 16.8825 6.0246C17.3664 6.41074 17.5172 7.7189 17.4973 8.49906ZM7.46541 18.7436C9.15128 18.259 11.6226 18.4875 12.6936 19.7011C12.8146 19.8266 12.904 19.9788 12.9543 20.1452C13.0046 20.3117 13.0145 20.4876 12.9832 20.6586C12.8865 20.9714 12.724 21.2604 12.5066 21.5062C12.2891 21.7521 12.0216 21.9494 11.7217 22.0849C10.0557 22.9478 8.10009 22.6011 6.23572 22.0849H6.17225C5.54947 21.9155 4.90686 21.7461 4.28805 21.5136C4.59102 20.8558 5.03081 20.2693 5.57846 19.7925C6.12611 19.3158 6.76921 18.9596 7.46541 18.7476V18.7436ZM3.89534 22.6247C4.29201 22.7666 4.64109 22.8809 4.93066 22.9715C6.77123 23.5389 8.72684 24.059 10.7102 23.6689C12.2969 23.3537 13.5464 22.4868 14.0066 21.3875C14.4667 20.2882 14.0066 19.0234 12.8166 18.2826C11.964 17.7987 11.0225 17.4891 10.0477 17.3721C9.07283 17.255 8.08426 17.3328 7.14014 17.601C6.30693 17.8451 5.53357 18.2579 4.86867 18.8132C4.20377 19.3686 3.6617 20.0545 3.27653 20.828L3.17339 21.0053C2.92722 20.8642 2.69482 20.7007 2.47921 20.5167C1.82866 19.9572 1.45579 19.1455 1.31299 17.9556C1.19185 16.7447 1.15078 15.5271 1.19002 14.3109C1.19002 13.976 1.19002 13.645 1.19002 13.314C1.16107 10.76 1.33749 8.20787 1.7176 5.6818L1.7652 5.39023C1.92783 4.37365 2.12617 3.10884 2.77672 2.38384C2.84115 2.29989 2.92691 2.23447 3.0252 2.19431C3.12349 2.15415 3.23077 2.14069 3.33603 2.15531C3.53401 2.21139 3.71654 2.31148 3.8698 2.44801C4.02306 2.58455 4.14303 2.75394 4.22061 2.94335C4.64506 3.89295 4.67679 5.01985 4.70852 6.09553V6.37922C4.70852 6.70626 4.70852 7.0333 4.73232 7.3564C4.73421 8.32191 4.79514 9.28641 4.91479 10.2446C4.9981 10.8395 5.17263 12.0847 6.10482 12.522C6.34335 12.6443 6.6079 12.7082 6.87635 12.7082C7.1448 12.7082 7.40935 12.6443 7.64788 12.522C7.95644 12.3473 8.22125 12.1056 8.42251 11.815C8.62378 11.5243 8.75629 11.1922 8.81014 10.8435C8.95499 9.73296 8.98158 8.61037 8.88947 7.4943C8.86171 6.87569 8.82997 6.23737 8.84584 5.62664C8.84584 5.53208 8.84584 5.42963 8.84584 5.32324C8.86567 4.04267 8.90137 2.11197 9.90893 1.38303C10.3056 1.09933 10.5079 1.19784 10.5714 1.22936C10.9681 1.42243 11.4322 2.32474 11.4837 5.5242C11.4837 5.603 11.4837 5.66998 11.4837 5.72121C11.4837 6.29648 11.5075 6.90327 11.5155 7.45096C11.5155 8.23901 11.5353 9.07039 11.567 9.88208V9.92148C11.5625 11.0591 11.7119 12.1922 12.0113 13.2904C12.3366 14.2912 12.8761 14.8428 13.6218 14.9256C14.3509 14.9964 15.0826 14.8185 15.6964 14.4212C16.0926 15.0717 16.6699 15.5944 17.3585 15.9264C17.8807 16.1533 18.4694 16.1786 19.0094 15.9971C19.5494 15.8156 20.0018 15.4406 20.278 14.9453C21.0436 13.7632 21.0714 12.3644 21.0952 11.005C21.0952 10.7765 21.0952 10.548 21.0952 10.3194C21.0688 9.58798 21.2156 8.86058 21.5236 8.19566C21.7854 7.73466 22.3804 7.36428 22.8802 7.56523C23.614 7.8568 23.7846 9.228 23.8798 9.96088V10.02C24.0337 11.4703 24.0576 12.9313 23.9512 14.3857C23.8408 16.8972 23.5598 19.3983 23.1103 21.8722C22.5668 24.7091 21.468 26.301 19.5402 27.026C18.1129 27.5021 16.6189 27.7521 15.1133 27.7667C12.9289 27.885 10.7383 27.823 8.5642 27.5815C6.9775 27.3885 5.3908 27.0693 4.47845 26.0054C3.80807 25.2174 3.59783 23.9723 3.89931 22.6287L3.89534 22.6247Z"
            fill="#FF364A" />
    </g>
    <defs>
        <clipPath id="clip0">
            <rect fill="white" height="29" width="94" />
        </clipPath>
    </defs>
</svg>
