<svg fill="none" height="36" viewBox="0 0 32 36" width="32" xmlns="http://www.w3.org/2000/svg">
    <path
        d="M28.8 17.1273C28.9455 17.8545 29.0909 18.7273 29.0909 19.4545C29.0909 21.4909 28.6545 23.5273 27.7818 25.2727C24.8727 26.8727 23.5636 26 22.2545 24.9818C21.3818 24.2545 20.0727 23.3818 18.4727 23.9636C16.8727 24.5455 15.7091 25.8545 14.9818 27.4545C14.4 28.9091 14.2545 30.8 14.5455 32.5455C11.6364 32.2545 9.01818 30.9455 7.12727 29.0545C8.14545 26.8727 8.14545 24.6909 6.83636 22.8C6.54545 22.2182 6.10909 21.7818 5.67273 21.3455C4.94545 20.6182 5.23636 19.3091 6.10909 18.8727C7.27273 18.2909 8.58182 17.7091 9.45455 16.5455C11.2 13.9273 9.16364 10.1455 8.72727 9.41818C8.58182 9.27273 8.43636 9.12727 8.29091 8.83636C9.74545 7.81818 11.3455 7.09091 13.0909 6.65455C13.2364 5.49091 13.5273 4.47273 13.9636 3.6C6.10909 4.61818 0 11.3091 0 19.4545C0 28.3273 7.12727 35.4545 16 35.4545C24.8727 35.4545 32 28.3273 32 19.4545C32 17.7091 31.7091 15.9636 31.1273 14.2182C30.4 15.2364 29.6727 16.2545 28.8 17.1273Z"
        fill="#0D7EE6" />
    <path
        d="M23.2727 0.545454C19.6364 0.545454 16 3.30909 16 7.81818C16 11.8909 21.6727 17.1273 22.2545 17.5636C22.5455 17.8545 22.8364 18 23.2727 18C23.7091 18 24 17.8545 24.2909 17.5636C24.8727 17.1273 30.5455 11.8909 30.5455 7.81818C30.5455 3.30909 26.9091 0.545454 23.2727 0.545454ZM23.2727 10.7273C21.6727 10.7273 20.3636 9.41818 20.3636 7.81818C20.3636 6.21818 21.6727 4.90909 23.2727 4.90909C24.8727 4.90909 26.1818 6.21818 26.1818 7.81818C26.1818 9.41818 24.8727 10.7273 23.2727 10.7273Z"
        fill="#0D7EE6" />
</svg>
