<svg fill="none" height="68" viewBox="0 0 64 68" width="64" xmlns="http://www.w3.org/2000/svg">
    <defs>
        <linearGradient gradientUnits="userSpaceOnUse" id="paint0_linear" x1="31.86" x2="31.6731"
            y1="1.11297e-08" y2="59.1788">
            <stop stop-color="#9D8ECF" />
            <stop offset="1" stop-color="#A497D3" stop-opacity="0" />
        </linearGradient>
        <linearGradient gradientUnits="userSpaceOnUse" id="paint1_linear" x1="31.9518" x2="31.8092"
            y1="7.08368" y2="52.2527">
            <stop stop-color="#9D8ECF" />
            <stop offset="1" stop-color="#A497D3" stop-opacity="0" />
        </linearGradient>
    </defs>
    <path
        d="M62.97 31.8843C62.97 49.0798 49.041 63.0186 31.86 63.0186C14.679 63.0186 0.75 49.0798 0.75 31.8843C0.75 14.6888 14.679 0.75 31.86 0.75C49.041 0.75 62.97 14.6888 62.97 31.8843Z"
        opacity="0.5" stroke="url(#paint0_linear)" stroke-width="1.5" />
    <path
        d="M55.5194 31.4198C55.5194 44.4467 44.9673 55.006 31.9518 55.006C18.9363 55.006 8.38416 44.4467 8.38416 31.4198C8.38416 18.393 18.9363 7.83368 31.9518 7.83368C44.9673 7.83368 55.5194 18.393 55.5194 31.4198Z"
        opacity="0.5" stroke="url(#paint1_linear)" stroke-width="1.5" />
    <path
        d="M38.7595 53.7136V59.5317C38.7595 61.0421 38.1156 62.4816 36.9891 63.4873L33.5971 66.5153C32.6593 67.3521 31.2426 67.3521 30.3048 66.5153L26.9163 63.4873C25.7899 62.4816 25.1459 61.0421 25.1459 59.5317V53.7118H38.7595V53.7136Z"
        fill="#5938CF" />
    <path
        d="M49.3565 31.3271C49.3565 36.1377 47.4065 40.4926 44.2594 43.6458C42.6921 45.2106 40.8274 46.4832 38.7595 47.3618V53.7136H25.1459V47.3618C18.9151 44.7132 14.5453 38.5303 14.5453 31.3271C14.5453 26.5165 16.4953 22.1615 19.6424 19.0083C22.7933 15.8587 27.1449 13.9073 31.9518 13.9073C36.7587 13.9073 41.1104 15.8587 44.2612 19.0083C47.4066 22.1597 49.3565 26.5147 49.3565 31.3271Z"
        fill="#BFB6E0" />
    <path
        d="M34.2066 53.7137L38.4185 36.0089C36.7043 36.0089 34.8414 34.5457 34.8414 32.5198C34.8414 30.1 37.6349 30.0437 37.6349 32.5198C37.6349 34.5457 35.821 36.0089 34.1068 36.0089C32.3926 36.0089 30.5297 34.5457 30.5297 32.5198C30.5297 30.1 33.3232 30.0437 33.3232 32.5198C33.3232 34.5457 31.5092 36.0089 29.7951 36.0089C28.0809 36.0089 26.218 34.5457 26.218 32.5198C26.218 30.1 29.0114 30.0437 29.0114 32.5198C29.0114 34.5457 27.1993 36.0089 25.4833 36.0089L29.6935 53.7137"
        stroke="white" stroke-miterlimit="10" />
</svg>
