<svg fill="none" height="55" viewBox="0 0 76 55" width="76" xmlns="http://www.w3.org/2000/svg">
    <path
        d="M14.816 20.3277H4.72395L0.203156 5.76116C-0.685296 2.90186 1.45157 0 4.4458 0C5.65331 0 6.79046 0.392807 7.71491 1.07531C8.63609 1.7529 9.34783 2.71691 9.70616 3.86587C9.70779 3.87078 9.70943 3.87405 9.71106 3.87896L14.816 20.3277Z"
        fill="#5938CF" />
    <path
        d="M67.4931 54.7065H29.5482C28.3407 54.7065 27.2035 54.3137 26.2791 53.6312C25.3579 52.9536 24.6462 51.9896 24.2878 50.8406L19.178 34.3788L14.8159 20.3277L9.711 3.87897C9.70937 3.87405 9.70773 3.87078 9.7061 3.86587C9.34777 2.71691 8.63603 1.7529 7.71485 1.07531C6.7904 0.392807 5.65325 0 4.44574 0H42.2941C47.1814 0 51.501 3.18173 52.949 7.85122L61.1839 34.3788L67.4931 54.7065Z"
        fill="#BFB6E0" />
    <path
        d="M26.68 15.619H21.4671C20.9189 15.619 20.4346 15.2622 20.2726 14.7385L18.7788 9.9266C18.5285 9.12135 19.1306 8.303 19.9732 8.303H25.1861C25.7343 8.303 26.2186 8.6598 26.3805 9.18354L27.8744 13.9954C28.1247 14.8023 27.5242 15.619 26.68 15.619Z"
        stroke="#523D9C" stroke-miterlimit="10" />
    <path
        d="M31.0896 29.832H25.8767C25.3285 29.832 24.8442 29.4752 24.6823 28.9515L23.1884 24.1396C22.9381 23.3343 23.5402 22.516 24.3828 22.516H29.5957C30.1439 22.516 30.6282 22.8728 30.7902 23.3965L32.284 28.2084C32.536 29.0137 31.9338 29.832 31.0896 29.832Z"
        stroke="#523D9C" stroke-miterlimit="10" />
    <path
        d="M35.499 44.0434H30.2861C29.738 44.0434 29.2537 43.6866 29.0917 43.1629L27.5978 38.351C27.3475 37.5458 27.9496 36.7274 28.7923 36.7274H34.0052C34.5533 36.7274 35.0376 37.0842 35.1996 37.6079L36.6934 42.4198C36.9454 43.2251 36.3433 44.0434 35.499 44.0434Z"
        stroke="#523D9C" stroke-miterlimit="10" />
    <path d="M27.9872 4.77093L23.5777 13.0919L20.7258 11.3995" stroke="#523D9C"
        stroke-miterlimit="10" />
    <path d="M32.4197 19.038L28.0101 27.3606L25.1583 25.6666" stroke="#523D9C"
        stroke-miterlimit="10" />
    <path d="M31.3235 11.9627H45.8839" stroke="#523D9C" stroke-miterlimit="10" />
    <path d="M35.7183 26.174H50.2788" stroke="#523D9C" stroke-miterlimit="10" />
    <path
        d="M71.5543 54.7065H29.5483C32.5426 54.7065 34.6794 51.8046 33.791 48.9453L32.119 43.4739H74.125L75.7969 48.9453C76.6854 51.8046 74.5485 54.7065 71.5543 54.7065Z"
        fill="#5938CF" />
</svg>
