<svg fill="none" height="20" viewBox="0 0 20 20" width="20" xmlns="http://www.w3.org/2000/svg">
    <path clip-rule="evenodd"
        d="M8.59106 17.0688C8.99516 17.427 9.27478 17.6748 9.3 17.7C9.7 18.1 10.3 18.1 10.7 17.8C10.75 17.75 11.775 16.825 12.8 15.9C13.825 14.975 14.85 14.05 14.9 14C16.3 12.7 17 10.9 17 9C17 5.1 13.9 2 10 2C6.1 2 3 5.1 3 9C3 10.9 3.7 12.7 5.1 13.9C5.1 13.9748 7.3928 16.0068 8.59106 17.0688ZM10 15.7L6.6 12.7C5.6 11.7 5 10.4 5 9C5 6.2 7.2 4.1 10 4.1C12.8 4.1 15 6.3 15 9.1C15 10.5 14.4 11.7 13.4 12.7L10 15.7ZM12 9C12 10.1046 11.1046 11 10 11C8.89543 11 8 10.1046 8 9C8 7.89543 8.89543 7 10 7C11.1046 7 12 7.89543 12 9Z"
        fill="#6279B6" fill-rule="evenodd" />
</svg>
