<svg fill="none" height="20" viewBox="0 0 20 20" width="20" xmlns="http://www.w3.org/2000/svg">
    <path clip-rule="evenodd"
        d="M9.99996 8.33331H16.6666C17.0202 8.33331 17.3594 8.47379 17.6094 8.72384C17.8595 8.97389 18 9.31302 18 9.66665V15.6666C18 16.0203 17.8595 16.3594 17.6094 16.6095C17.3594 16.8595 17.0202 17 16.6666 17V19L14 17H9.99996C9.64634 17 9.3072 16.8595 9.05715 16.6095C8.8071 16.3594 8.66663 16.0203 8.66663 15.6666V9.66665C8.66663 9.31302 8.8071 8.97389 9.05715 8.72384C9.3072 8.47379 9.64634 8.33331 9.99996 8.33331ZM14.2 13.8666L14.546 15H15.6333L13.9466 10.2213H12.7133L11.0333 15H12.1206L12.4666 13.8666H14.2ZM12.7186 13.0207C13.0573 11.9251 13.2622 11.2382 13.3333 10.96C13.352 11.0387 13.3813 11.1454 13.42 11.2794C13.4595 11.414 13.6391 11.9945 13.9586 13.0207H12.7186Z"
        fill="#0081B9" fill-rule="evenodd" />
    <path clip-rule="evenodd"
        d="M3.33333 3H10C10.3536 3 10.6928 3.14048 10.9428 3.39052C11.1929 3.64057 11.3333 3.97971 11.3333 4.33333V7.66667H10C9.69131 7.66775 9.38709 7.74059 9.11138 7.87943C8.83567 8.01827 8.59601 8.21931 8.41133 8.46667C8.06994 8.36037 7.74199 8.21496 7.434 8.03333C7.66901 7.77207 7.8681 7.48061 8.026 7.16667C8.18963 6.84084 8.30998 6.49502 8.384 6.138C8.698 6.138 8.906 6.14867 9.14067 6.17V5.202C8.88408 5.22974 8.62607 5.2422 8.368 5.23933H7.10133V4.914C7.10112 4.80498 7.11184 4.69621 7.13333 4.58933H6.06467C6.08658 4.69908 6.0973 4.81076 6.09667 4.92267V5.24267H4.918C4.65993 5.24541 4.40193 5.23295 4.14533 5.20533V6.17C4.412 6.14867 4.59333 6.138 4.90733 6.138C4.99794 6.45376 5.12127 6.7592 5.27533 7.04933C5.46177 7.40252 5.69276 7.73031 5.96267 8.02467C5.37764 8.36626 4.7373 8.60273 4.07067 8.72333C4.29508 9.00549 4.46836 9.32475 4.58267 9.66667C5.34076 9.46379 6.05833 9.13207 6.704 8.686C7.11382 8.97878 7.55803 9.22015 8.02667 9.40467C8.01168 9.49127 8.00277 9.57882 8 9.66667V11.6667H6L3.33333 13.6667V11.6667C2.97971 11.6667 2.64057 11.5262 2.39052 11.2761C2.14048 11.0261 2 10.687 2 10.3333V4.33333C2 3.97971 2.14048 3.64057 2.39052 3.39052C2.64057 3.14048 2.97971 3 3.33333 3ZM7.344 6.138C7.23051 6.61601 7.00161 7.05893 6.67733 7.428C6.32627 7.0663 6.0706 6.62301 5.93333 6.138H7.344Z"
        fill="#0D7EE6" fill-rule="evenodd" />
</svg>
