<svg fill="none" height="140" viewBox="0 0 155 140" width="155" xmlns="http://www.w3.org/2000/svg">
    <g clip-path="url(#clip0)">
        <path d="M0 8C0 3.58172 3.58172 0 8 0H147C151.418 0 155 3.58172 155 8V140H0V8Z"
            fill="#EEF3FF" />
        <path
            d="M128.82 72.675C128.902 80.2468 125.868 87.106 120.92 92.0542C116.038 96.9367 109.293 99.9575 101.843 99.9575H84.1221C80.8189 99.9575 78.1429 102.634 78.1429 105.937V112.599C67.7408 107.05 56.9184 102.322 45.7546 98.5259C35.1194 94.9075 27.4656 84.8371 27.4656 72.9771C27.4656 65.5269 30.4864 58.7826 35.3689 53.9001C40.2482 49.0175 46.9925 46 54.4427 46H101.498C116.336 46 128.656 57.837 128.82 72.675Z"
            fill="white" />
        <line stroke="#E3444E" stroke-miterlimit="10" stroke-width="2" x1="51.8618" x2="104.398"
            y1="73.0738" y2="73.0738" />
        <path
            d="M57.3946 160.866H-9.03036C-23.8684 160.866 -36.1848 149.029 -36.349 134.195C-36.431 126.623 -33.4004 119.764 -28.4522 114.812C-23.5696 109.93 -16.8254 106.909 -9.37512 106.909H27.4984C42.3365 106.909 54.6561 118.746 54.8203 133.584C54.8958 140.358 52.4759 146.56 48.4208 151.334C47.6459 152.247 47.7838 153.617 48.7393 154.339L57.3946 160.866Z"
            fill="#CCDBFF" />
        <path
            d="M165.405 140.909C165.405 148.359 162.384 155.104 157.501 159.986C152.619 164.869 145.875 167.889 138.424 167.889H91.0273C76.1268 167.889 64.0469 155.809 64.0469 140.909C64.0469 133.459 67.0677 126.714 71.9502 121.832C76.8328 116.953 83.5771 113.932 91.0273 113.932H104.302C112.153 113.932 119.754 111.174 125.776 106.137L134.491 98.8508V113.932H138.424C153.325 113.932 165.405 126.009 165.405 140.909Z"
            fill="#CCDBFF" />
        <path
            d="M23.3546 70.9771C23.3546 85.8776 11.2747 97.9575 -3.62248 97.9575H-14.2478C-26.8367 97.9575 -29.851 110.599 -45.0469 110.599C-45.0469 110.599 -40.5584 104.758 -40.5584 97.9575H-51.0229C-65.9233 97.9575 -78 85.8776 -78 70.9804C-78 56.0799 -65.9201 44 -51.0229 44H-3.62576C11.278 44 23.3546 56.0799 23.3546 70.9771Z"
            fill="#CCDBFF" />
        <path
            d="M229.395 99.8663H162.97C148.132 99.8663 135.815 88.0294 135.651 73.1946C135.569 65.6229 138.6 58.7637 143.548 53.8122C148.43 48.9296 155.175 45.9088 162.625 45.9088H199.498C214.336 45.9088 226.656 57.7458 226.82 72.5839C226.896 79.3577 224.476 85.5602 220.421 90.3344C219.646 91.2472 219.784 92.6164 220.739 93.3388L229.395 99.8663Z"
            fill="#CCDBFF" />
        <path
            d="M195.355 11.9771C195.355 26.8776 183.275 38.9575 168.378 38.9575H157.752C145.163 38.9575 142.149 51.5989 126.953 51.5989C126.953 51.5989 131.442 45.7576 131.442 38.9575H120.977C106.077 38.9575 94 26.8776 94 11.9804C94 -2.92006 106.08 -15 120.977 -15H168.374C183.278 -15 195.355 -2.92006 195.355 11.9771Z"
            fill="#CCDBFF" />
        <path
            d="M88.4048 10.909C88.4048 18.3592 85.384 25.1035 80.5014 29.986C75.6189 34.8686 68.8746 37.8894 61.4244 37.8894H14.0273C-0.873168 37.8894 -12.9531 25.8094 -12.9531 10.909C-12.9531 3.45876 -9.93232 -3.28551 -5.04977 -8.16806C-0.167231 -13.0473 6.57706 -16.0681 14.0273 -16.0681H27.3024C35.1532 -16.0681 42.7545 -18.8263 48.7764 -23.8631L57.4908 -31.1492V-16.0681H61.4244C76.3249 -16.0681 88.4048 -3.99147 88.4048 10.909Z"
            fill="#CCDBFF" />
    </g>
    <defs>
        <clipPath id="clip0">
            <path d="M0 8C0 3.58172 3.58172 0 8 0H147C151.418 0 155 3.58172 155 8V140H0V8Z"
                fill="white" />
        </clipPath>
    </defs>
</svg>
