<svg fill="none" height="22" viewBox="0 0 22 22" width="22" xmlns="http://www.w3.org/2000/svg">
    <path
        d="M13.1998 5.50005C13.1998 4.29005 12.2098 3.30005 10.9998 3.30005C9.7898 3.30005 8.7998 4.29005 8.7998 5.50005V6.60005H13.1998V5.50005Z"
        fill="#0081B9" />
    <path
        d="M18.7002 7.69995H3.3002C2.6402 7.69995 2.2002 8.13995 2.2002 8.79995V17.6C2.2002 18.26 2.6402 18.7 3.3002 18.7H18.7002C19.3602 18.7 19.8002 18.26 19.8002 17.6V8.79995C19.8002 8.13995 19.3602 7.69995 18.7002 7.69995ZM9.90019 15.4H5.5002V11H9.90019V15.4ZM16.5002 15.4H12.1002V14.3H16.5002V15.4ZM16.5002 12.1H12.1002V11H16.5002V12.1Z"
        fill="#0D7EE6" />
</svg>
