<svg fill="none" height="22" viewBox="0 0 22 22" width="22" xmlns="http://www.w3.org/2000/svg">
    <path
        d="M16.5002 2.19995H9.90019V8.79995L7.70019 7.69995L5.5002 8.79995V2.19995C3.6302 2.19995 2.2002 3.62995 2.2002 5.49995V16.5C2.2002 18.3699 3.6302 19.7999 5.5002 19.7999H16.5002C18.3702 19.7999 19.8002 18.3699 19.8002 16.5V12.1V5.49995C19.8002 3.62995 18.3702 2.19995 16.5002 2.19995ZM17.6002 16.5C17.6002 17.16 17.1602 17.5999 16.5002 17.5999H5.5002C4.84019 17.5999 4.4002 17.16 4.4002 16.5C4.4002 15.8399 4.84019 15.4 5.5002 15.4H16.5002C17.1602 15.4 17.4902 15.29 17.6002 15.18V16.5Z"
        fill="#0D7EE6" />
</svg>
