<svg fill="none" height="20" viewBox="0 0 20 20" width="20" xmlns="http://www.w3.org/2000/svg">
    <path d="M11 6V13H9V6H6L10 2L14 6H11Z" fill="#0D7EE6" />
    <path
        d="M17 18H2.99998C2.71298 18 2.43998 17.877 2.24998 17.662C2.05998 17.447 1.97198 17.161 2.00698 16.876L3.00698 8.876C3.06998 8.375 3.49598 8 3.99998 8H6.99998V10H4.88298L4.13298 16H15.867L15.117 10H13V8H16C16.504 8 16.93 8.375 16.992 8.876L17.992 16.876C18.028 17.161 17.939 17.447 17.749 17.662C17.56 17.877 17.287 18 17 18Z"
        fill="#0081B9" />
</svg>
