<svg fill="none" height="22" viewBox="0 0 22 22" width="22" xmlns="http://www.w3.org/2000/svg">
    <path
        d="M18.7021 2.20182H3.30207C3.15531 2.193 3.00836 2.21541 2.8709 2.26757C2.73344 2.31973 2.60862 2.40046 2.50466 2.50441C2.4007 2.60837 2.31998 2.7332 2.26782 2.87066C2.21566 3.00811 2.19325 3.15507 2.20207 3.30182V15.4018C2.19325 15.5486 2.21566 15.6955 2.26782 15.833C2.31998 15.9704 2.4007 16.0953 2.50466 16.1992C2.60862 16.3032 2.73344 16.3839 2.8709 16.4361C3.00836 16.4882 3.15531 16.5106 3.30207 16.5018H7.70207L11.0021 19.8018L14.3021 16.5018H18.7021C18.8488 16.5106 18.9958 16.4882 19.1332 16.4361C19.2707 16.3839 19.3955 16.3032 19.4995 16.1992C19.6034 16.0953 19.6842 15.9704 19.7363 15.833C19.7885 15.6955 19.8109 15.5486 19.8021 15.4018V3.30182C19.8109 3.15507 19.7885 3.00811 19.7363 2.87066C19.6842 2.7332 19.6034 2.60837 19.4995 2.50441C19.3955 2.40046 19.2707 2.31973 19.1332 2.26757C18.9958 2.21541 18.8488 2.193 18.7021 2.20182ZM7.70207 12.1018H5.50207V6.60182H7.70207V12.1018ZM12.1021 13.2018H9.90207V5.50182H12.1021V13.2018ZM16.5021 11.0018H14.3021V7.70182H16.5021V11.0018Z"
        fill="#0D7EE6" />
</svg>
