<svg fill="none" height="14" viewBox="0 0 14 14" width="14" xmlns="http://www.w3.org/2000/svg">
    <path
        d="M13.125 0H0.875C0.35 0 0 0.35 0 0.875V13.125C0 13.65 0.35 14 0.875 14H13.125C13.65 14 14 13.65 14 13.125V0.875C14 0.35 13.65 0 13.125 0ZM12.25 12.25H11.375C11.375 10.5 10.7625 9.975 9.625 9.625C9.0125 9.45 8.3125 9.1 8.05 8.575C9.0125 8.1375 9.625 7.175 9.625 6.125V5.25C9.625 3.7625 8.4875 2.625 7 2.625C5.5125 2.625 4.375 3.7625 4.375 5.25V6.125C4.375 7.175 4.9875 8.1375 5.95 8.4875C5.6875 9.0125 4.9875 9.3625 4.375 9.625C3.2375 9.975 2.625 10.5 2.625 12.25H1.75V1.75H12.25V12.25Z"
        fill="#0D7EE6" />
</svg>
