<svg fill="none" height="22" viewBox="0 0 22 22" width="22" xmlns="http://www.w3.org/2000/svg">
    <path
        d="M7.6999 6.59995C8.5799 6.59995 9.4599 6.92995 10.0099 7.58995L12.3199 9.89995H17.5999V3.29995C17.5999 2.63995 17.1599 2.19995 16.4999 2.19995H5.4999C4.8399 2.19995 4.3999 2.63995 4.3999 3.29995V6.59995H7.6999Z"
        fill="#0081B9" />
    <path
        d="M18.6999 12.1H11.4399L8.46995 9.13005C8.24995 8.91005 8.02995 8.80005 7.69995 8.80005H3.29995C2.63995 8.80005 2.19995 9.24005 2.19995 9.90005V18.7C2.19995 19.36 2.63995 19.8 3.29995 19.8H18.6999C19.3599 19.8 19.7999 19.36 19.7999 18.7V13.2C19.7999 12.54 19.3599 12.1 18.6999 12.1Z"
        fill="#0D7EE6" />
</svg>
