<svg fill="none" height="22" viewBox="0 0 22 22" width="22" xmlns="http://www.w3.org/2000/svg">
    <path clip-rule="evenodd"
        d="M2.2002 11C2.2002 6.15995 6.16019 2.19995 11.0002 2.19995C15.8402 2.19995 19.8002 6.15995 19.8002 11C19.8002 15.84 15.8402 19.7999 11.0002 19.7999C6.16019 19.7999 2.2002 15.84 2.2002 11ZM12.1002 14.2999C13.8602 14.2999 14.7402 15.07 15.4002 15.8399C16.7202 14.6299 17.6002 12.9799 17.6002 11C17.6002 7.36995 14.6302 4.39995 11.0002 4.39995C7.37019 4.39995 4.4002 7.36995 4.4002 11C4.4002 12.9799 5.28019 14.6299 6.60019 15.8399C7.26019 15.07 8.14019 14.2999 9.90019 14.2999H12.1002ZM14.3002 9.89995C14.3002 11.7225 12.8227 13.2 11.0002 13.2C9.17766 13.2 7.7002 11.7225 7.7002 9.89995C7.7002 8.07741 9.17766 6.59995 11.0002 6.59995C12.8227 6.59995 14.3002 8.07741 14.3002 9.89995Z"
        fill="#0D7EE6" fill-rule="evenodd" />
</svg>
