<svg fill="none" height="140" viewBox="0 0 155 140" width="155" xmlns="http://www.w3.org/2000/svg">
    <path d="M0 8C0 3.58172 3.58172 0 8 0H147C151.418 0 155 3.58172 155 8V140H0V8Z"
        fill="#EEF3FF" />
    <path
        d="M107.014 73.3346C107.014 81.6717 103.657 89.2217 98.2233 94.6826C96.581 96.3345 94.7456 97.8017 92.7556 99.0406C91.693 99.7014 91.0264 100.843 91.0264 102.101V109.248C91.0264 111.537 90.0894 113.723 88.4326 115.292L86.0756 117.522L82.5834 120.826C81.0716 122.254 79.0768 123.051 77.0046 123.051C75.9662 123.051 74.947 122.852 74.0003 122.473C73.0536 122.094 72.1794 121.54 71.4211 120.826L67.9337 117.522L65.5766 115.292C63.9199 113.723 62.978 111.537 62.978 109.248V102.101C62.978 100.848 62.3115 99.7014 61.2489 99.0406C52.6899 93.7206 46.9856 84.1932 46.9856 73.3346C46.9856 64.9975 50.3425 57.4523 55.7764 51.9865C61.2102 46.5256 68.7114 43.1442 76.9998 43.1442C85.2883 43.1442 92.7894 46.5256 98.2233 51.9865C103.657 57.4523 107.014 64.9975 107.014 73.3346Z"
        fill="#FFFFFF" />
    <path d="M76.9999 34.8411V16" stroke="#E3444E" stroke-miterlimit="10" stroke-width="2" />
    <path d="M49.9418 46.1174L36.6928 32.7906" stroke="#E3444E" stroke-miterlimit="10"
        stroke-width="2" />
    <path d="M38.7311 73.3345H20" stroke="#E3444E" stroke-miterlimit="10" stroke-width="2" />
    <path d="M115.269 73.3345H134" stroke="#E3444E" stroke-miterlimit="10" stroke-width="2" />
    <path d="M104.063 46.1174L117.307 32.7906" stroke="#E3444E" stroke-miterlimit="10"
        stroke-width="2" />
</svg>
