<svg fill="none" height="126" viewBox="0 0 300 126" width="300" xmlns="http://www.w3.org/2000/svg">
    <rect fill="#6AC1E7" height="125" rx="4" width="300" y="0.5" />
    <mask height="126" id="mask0" width="300" x="0" y="0">
        <rect fill="#CBDAFF" height="125" width="300" y="0.5" />
    </mask>
    <g mask="url(#mask0)">
        <rect height="44" rx="11" stroke="#1F87B4" stroke-width="2" width="126" x="18" y="88" />
        <rect height="79" rx="11" stroke="#1F87B4" stroke-width="2" width="69" x="283" y="71.5" />
        <rect height="67" rx="11" stroke="#1F87B4" stroke-width="2" width="126" x="-79" y="-16.5" />
        <rect height="103" rx="11" stroke="#1F87B4" stroke-width="2" width="126" x="142" y="-15" />
        <path
            d="M205.043 125.546H120.261C118.558 125.546 117.092 124.422 116.649 122.752L107.517 88.8119H69.0107C67.7839 88.8119 66.8298 87.6874 67.0342 86.4607L81.6189 -1.35384C81.9596 -3.46657 83.7998 -5 85.9125 -5H171.376C173.352 -5 175.056 -3.67103 175.567 -1.79683L210 125.546H205.043Z"
            fill="#DBF4FF" />
        <path
            d="M81.6189 -1.35384L67.0342 86.4947C66.8298 87.7215 67.7839 88.846 69.0107 88.846H107.483L83.1864 -1.42199C82.9478 -2.27389 81.7552 -2.20574 81.6189 -1.35384Z"
            fill="#1F87B4" />
        <path d="M179.161 45.2713L168.133 49.8154L168.782 51.3908L179.81 46.8467L179.161 45.2713Z"
            fill="#221F20" />
        <path
            d="M127.281 29.6214H107.244C106.324 29.6214 105.506 29.0081 105.268 28.1221L100.838 11.6292C100.599 10.7773 101.247 9.92535 102.167 9.92535H122.203C123.124 9.92535 123.941 10.5387 124.18 11.4247L128.61 27.9176C128.848 28.7695 128.201 29.6214 127.281 29.6214Z"
            fill="#6AC1E6" />
        <path
            d="M114.707 24.1352C114.502 24.1352 114.298 24.067 114.128 23.8967L108.369 18.5808L109.527 17.3199L114.536 21.9543L126.736 3.62128L128.167 4.57541L115.422 23.7603C115.286 23.9648 115.048 24.1011 114.809 24.1352C114.775 24.1352 114.741 24.1352 114.707 24.1352Z"
            fill="#1F87B4" />
        <path
            d="M166.23 20.3187H139.003C138.219 20.3187 137.572 19.8075 137.367 19.0578C137.061 17.9674 137.879 16.911 139.003 16.911H166.23C167.014 16.911 167.661 17.4222 167.866 18.1718C168.138 19.2282 167.32 20.3187 166.23 20.3187Z"
            fill="#6AC1E6" />
        <path
            d="M137.47 64.2771H117.433C116.513 64.2771 115.695 63.6637 115.456 62.7777L111.026 46.2848C110.788 45.4329 111.435 44.581 112.355 44.581H132.392C133.312 44.581 134.13 45.1944 134.369 46.0803L138.799 62.5733C139.003 63.4252 138.356 64.2771 137.47 64.2771Z"
            fill="#6AC1E6" />
        <path
            d="M124.896 58.7567C124.691 58.7567 124.487 58.6885 124.316 58.5181L118.557 53.2022L119.716 51.9414L124.725 56.5758L136.925 38.2428L138.356 39.1969L125.611 58.3818C125.475 58.5863 125.236 58.7226 124.998 58.7567C124.964 58.7567 124.93 58.7567 124.896 58.7567Z"
            fill="#1F87B4" />
        <path
            d="M176.385 54.9401H149.158C148.374 54.9401 147.727 54.429 147.522 53.6793C147.215 52.5889 148.033 51.5325 149.158 51.5325H176.385C177.168 51.5325 177.816 52.0437 178.02 52.7933C178.327 53.8838 177.509 54.9401 176.385 54.9401Z"
            fill="#6AC1E6" />
        <path
            d="M147.625 98.8985H127.588C126.668 98.8985 125.85 98.2852 125.611 97.3992L121.181 80.9063C120.943 80.0544 121.59 79.2025 122.51 79.2025H142.547C143.467 79.2025 144.285 79.8158 144.524 80.7018L148.954 97.1947C149.192 98.0466 148.511 98.8985 147.625 98.8985Z"
            fill="#6AC1E6" />
        <path
            d="M135.05 93.4122C134.846 93.4122 134.641 93.3441 134.471 93.1737L128.712 87.8578L129.871 86.597L134.88 91.2313L147.079 72.8983L148.51 73.8524L135.766 93.0374C135.63 93.2418 135.391 93.3781 135.153 93.4122C135.118 93.4122 135.084 93.4122 135.05 93.4122Z"
            fill="#1F87B4" />
        <path
            d="M186.54 89.5616H159.313C158.529 89.5616 157.882 89.0504 157.677 88.3008C157.37 87.2103 158.188 86.154 159.313 86.154H186.54C187.323 86.154 187.971 86.6651 188.175 87.4148C188.482 88.5052 187.664 89.5616 186.54 89.5616Z"
            fill="#6AC1E6" />
        <path
            d="M102.916 146.98L85.8783 77.4646C85.0945 74.2955 85.1286 70.9901 85.9805 67.8551L93.8862 38.345L100.258 61.994C100.599 63.2548 102.337 63.3229 102.78 62.1303L109.97 43.5928C110.924 41.1734 114.162 40.7304 115.695 42.809C116.82 44.3084 117.228 46.2507 116.751 48.0908L114.468 57.1892C113.242 62.1643 113.105 67.3439 114.128 72.3872L116.206 82.5419C117.058 86.6992 117.16 90.9588 116.547 95.1501L116.036 98.5237C115.286 103.567 115.593 108.712 116.956 113.619L126.19 146.98H102.916Z"
            fill="#A76644" />
        <path d="M126.225 146.98H98.4864L92.4209 120.128L117.671 115.664L126.225 146.98Z"
            fill="#1F87B4" />
        <path d="M117.672 115.664L92.421 120.128L91.2283 114.812L116.24 110.382L117.672 115.664Z"
            fill="white" />
        <path
            d="M226.477 46.9663C225.761 43.7632 223.717 40.9689 220.854 39.3332L206.236 30.9164C203.067 29.1104 199.25 28.94 195.945 30.4734L174 40.6622C172.875 41.1734 172.807 42.7749 173.897 43.3883C174.715 43.8654 175.567 44.2061 176.453 44.4788C177.339 44.7514 178.225 44.8877 179.145 44.9558C178.873 45.6033 178.77 46.3189 178.77 47.0004C178.77 48.5679 179.452 50.1354 180.679 51.1918L187.698 57.3255C189.913 59.2678 191.651 61.6873 192.776 64.4134C193.389 65.8786 194.173 67.2758 195.093 68.5366C196.047 69.7974 197.137 70.956 198.364 71.9442L210.155 81.5878C211.586 82.7464 212.574 84.348 213.017 86.1199L227.772 146.98H248.967L226.477 46.9663ZM205.077 50.6466L198.705 51.6007C198.262 51.6688 197.819 51.6007 197.444 51.3622L191.787 48.1931L184.325 44.0358L197.853 38.4473C198.705 38.1065 199.659 38.3791 200.17 39.0947L203.033 43.0135L206.338 47.5115C207.224 48.7042 206.508 50.408 205.077 50.6466Z"
            fill="#A76644" />
        <path
            d="M203.067 43.0475L191.787 48.2271L184.325 44.0698L197.853 38.4813C198.705 38.1405 199.659 38.4131 200.17 39.1287L203.067 43.0475Z"
            fill="#5B2F26" />
        <path
            d="M205.077 50.6465L198.705 51.6007C198.262 51.6688 197.819 51.6007 197.444 51.3621L191.787 48.193L203.067 43.0134L206.372 47.5115C207.224 48.7042 206.508 50.408 205.077 50.6465Z"
            fill="black" />
        <path d="M252 24.4759L225.864 33.5402L216.936 30.6097L238.915 20.8639L252 24.4759Z"
            fill="#DBF4FF" />
        <path d="M241.641 9.95946L238.915 20.8639L216.936 30.6097L218.912 22.2951L241.641 9.95946Z"
            fill="#1F87B4" />
        <path
            d="M185.279 44.5809L184.325 44.0357L184.256 43.1497L218 29L218.681 30.5675L185.279 44.5809Z"
            fill="#221F20" />
        <path d="M248.967 146.98H221.229L210.325 98.6259L237.313 95.116L248.967 146.98Z"
            fill="#1F87B4" />
        <path d="M237.313 95.116L210.325 98.6259L208.962 92.5603L235.95 89.0505L237.313 95.116Z"
            fill="white" />
    </g>
</svg>
