<svg fill="none" height="22" viewBox="0 0 22 22" width="22" xmlns="http://www.w3.org/2000/svg">
    <path clip-rule="evenodd"
        d="M5.2 17.1C5.2 17.7075 4.70751 18.2 4.1 18.2C3.49249 18.2 3 17.7075 3 17.1C3 16.4925 3.49249 16 4.1 16C4.70751 16 5.2 16.4925 5.2 17.1ZM9.6 17.1C9.6 17.7075 9.10751 18.2 8.5 18.2C7.89249 18.2 7.4 17.7075 7.4 17.1C7.4 16.4925 7.89249 16 8.5 16C9.10751 16 9.6 16.4925 9.6 17.1ZM12.9 18.2C13.5075 18.2 14 17.7075 14 17.1C14 16.4925 13.5075 16 12.9 16C12.2925 16 11.8 16.4925 11.8 17.1C11.8 17.7075 12.2925 18.2 12.9 18.2ZM18.4 17.1C18.4 17.7075 17.9075 18.2 17.3 18.2C16.6925 18.2 16.2 17.7075 16.2 17.1C16.2 16.4925 16.6925 16 17.3 16C17.9075 16 18.4 16.4925 18.4 17.1Z"
        fill="#0081B9" fill-rule="evenodd" />
    <path
        d="M15.4 7.69995H14.3V5.49995C14.3 4.62474 13.9523 3.78537 13.3335 3.1665C12.7146 2.54763 11.8752 2.19995 11 2.19995C10.1248 2.19995 9.28542 2.54763 8.66655 3.1665C8.04768 3.78537 7.7 4.62474 7.7 5.49995V7.69995H6.6C6.30826 7.69995 6.02847 7.81584 5.82218 8.02213C5.61589 8.22842 5.5 8.50821 5.5 8.79995V14.3C5.5 14.5917 5.61589 14.8715 5.82218 15.0778C6.02847 15.2841 6.30826 15.4 6.6 15.4H15.4C15.6917 15.4 15.9715 15.2841 16.1778 15.0778C16.3841 14.8715 16.5 14.5917 16.5 14.3V8.79995C16.5 8.50821 16.3841 8.22842 16.1778 8.02213C15.9715 7.81584 15.6917 7.69995 15.4 7.69995ZM9.9 7.69995V5.49995C9.9 5.20821 10.0159 4.92842 10.2222 4.72213C10.4285 4.51584 10.7083 4.39995 11 4.39995C11.2917 4.39995 11.5715 4.51584 11.7778 4.72213C11.9841 4.92842 12.1 5.20821 12.1 5.49995V7.69995H9.9Z"
        fill="#0D7EE6" />
</svg>
