<svg fill="none" height="125" viewBox="0 0 134 125" width="134" xmlns="http://www.w3.org/2000/svg">
    <rect fill="#6AC1E6" height="125" rx="4" width="134" />
    <mask height="125" id="mask0" width="134" x="0" y="0">
        <rect fill="#C8EEFF" height="125" rx="4" width="134" />
        <defs>
            <linearGradient gradientUnits="userSpaceOnUse" id="paint0_linear" x1="39.5" x2="40"
                y1="86" y2="44.5">
                <stop stop-color="#DBF4FF" />
                <stop offset="1" stop-color="#6AC1E6" />
            </linearGradient>
            <linearGradient gradientUnits="userSpaceOnUse" id="paint1_linear" x1="55.9068"
                x2="56.1966" y1="56.8277" y2="27.1336">
                <stop stop-color="#DBF4FF" />
                <stop offset="1" stop-color="#6AC1E6" />
            </linearGradient>
            <linearGradient gradientUnits="userSpaceOnUse" id="paint2_linear" x1="79.8925"
                x2="80.1819" y1="39.9499" y2="10.2763">
                <stop stop-color="#DBF4FF" />
                <stop offset="1" stop-color="#6AC1E6" />
            </linearGradient>
        </defs>
    </mask>
    <g mask="url(#mask0)">
        <rect height="109" rx="11" stroke="#1F87B4" stroke-width="2" width="69" x="-31" y="23" />
        <rect height="109" rx="11" stroke="#1F87B4" stroke-width="2" width="69" x="99" y="77" />
        <rect fill="#1F87B4" height="18" width="137" x="-3" y="107" />
        <path
            d="M25.999 54.5182V101.278L21.2942 112.65C21.2653 112.708 21.2364 112.765 21.2076 112.823C20.8323 113.66 20.2262 114.324 19.5046 114.815C18.5232 115.479 17.3109 115.767 16.0698 115.565C13.703 115.19 12 113.083 12 110.658V55.9614C12 55.1532 12.635 54.5182 13.4432 54.5182H25.999Z"
            fill="#1F87B4" />
        <path
            d="M49.9848 42.7418V61.7342C49.9848 65.0535 47.3005 67.7379 43.9811 67.7379C40.7195 67.7379 38.0352 65.1113 37.9775 61.8497V48.7455C37.9775 48.7166 37.9775 48.6877 37.9775 48.63C37.9197 45.3684 35.2643 42.7418 31.9738 42.7418H49.9848Z"
            fill="#DBF4FF" />
        <path
            d="M77.2034 67.7379V81.0441H34.3695L25.999 101.249V48.7166C25.999 45.3973 28.6833 42.7129 32.0027 42.7129C35.2643 42.7129 37.9486 45.3395 38.0064 48.6012C38.0064 48.63 38.0064 48.6589 38.0064 48.7166V61.8208C38.0641 65.0824 40.7196 67.709 44.01 67.709H77.2034V67.7379Z"
            fill="url(#paint0_linear)" />
        <path
            d="M73.9706 25.8565V44.8489C73.9706 48.1682 71.2863 50.8525 67.9669 50.8525C64.7053 50.8525 62.021 48.2259 61.9633 44.9643V31.8601C61.9633 31.8313 61.9633 31.8024 61.9633 31.7447C61.9055 28.4831 59.2501 25.8565 55.9596 25.8565H73.9706Z"
            fill="#DBF4FF" />
        <path
            d="M89.2108 50.8814V61.9651C89.2108 65.169 86.6131 67.7379 83.438 67.7379H43.9812C47.3005 67.7379 49.9849 65.0535 49.9849 61.7342V31.8601C49.9849 28.5408 52.6692 25.8565 55.9885 25.8565C59.279 25.8565 61.9345 28.4831 61.9922 31.7447C61.9922 31.7736 61.9922 31.8024 61.9922 31.8601V44.9643C62.05 48.2259 64.7054 50.8525 67.9959 50.8525H89.2108V50.8814Z"
            fill="url(#paint1_linear)" />
        <path
            d="M122 14.7728V36.4784H85.9491V15.0037C85.9491 13.3584 85.2852 11.8575 84.1884 10.7607C83.0916 9.66386 81.5906 9 79.9454 9H116.198C119.402 9 122 11.5977 122 14.7728Z"
            fill="#DBF4FF" />
        <path
            d="M113.197 36.4784V45.0798C113.197 48.2548 110.599 50.8525 107.424 50.8525H67.9669C71.2863 50.8525 73.9706 48.1682 73.9706 44.8489V15.0037C73.9706 11.6843 76.6549 9 79.9454 9C81.5906 9 83.0916 9.66386 84.1884 10.7607C85.2852 11.8575 85.9491 13.3584 85.9491 15.0037V36.5072H113.197V36.4784Z"
            fill="url(#paint2_linear)" />
        <path
            d="M86.3532 81.0441C87.3923 81.0441 88.0851 82.0832 87.681 83.0357L75.9911 111.293C74.9231 113.891 72.3543 115.594 69.5256 115.594H16.8203C17.8016 115.594 18.7253 115.305 19.5046 114.786C20.2262 114.295 20.8323 113.602 21.2076 112.794C21.2364 112.737 21.2653 112.679 21.2942 112.621L25.999 101.249L33.6479 82.8048C34.0808 81.7368 35.1488 81.0152 36.3033 81.0152H86.3532V81.0441Z"
            fill="#189ED7" />
    </g>
</svg>
