<svg fill="none" height="140" viewBox="0 0 330 140" width="330" xmlns="http://www.w3.org/2000/svg">
    <path
        d="M0 8.00001C0 3.58174 3.58172 1.52588e-05 8 1.52588e-05H322C326.418 1.52588e-05 330 3.58174 330 8.00002V140H0V8.00001Z"
        fill="#EEF3FF" />
    <path
        d="M192.521 82.3084V139.709H99V70.5013C99 67.4053 101.509 64.8958 104.605 64.8958H123.326C126.027 64.8958 128.604 66.024 130.438 68.0078L135.142 73.1037C137.261 75.3985 140.242 76.7029 143.366 76.7029H186.919C190.011 76.7029 192.521 79.2124 192.521 82.3084Z"
        fill="#C0CCEC" />
    <path
        d="M208.953 54.4701L203.318 83.6994L192.521 139.709H99L115.432 54.4701L118.393 39.1151C118.967 36.1473 121.566 34 124.588 34H191.031L187.774 50.8806C187.415 52.7427 188.842 54.4701 190.739 54.4701H208.953Z"
        fill="white" />
    <path
        d="M118.648 87.1746L118.648 87.1745C119.298 85.3882 120.994 84.1993 122.896 84.1993H207.392C209.721 84.1993 211.345 86.5149 210.547 88.7042L210.547 88.7044L192.171 139.209H99.714L118.648 87.1746Z"
        fill="white" stroke="#C0CCEC" />
    <path
        d="M228.035 95.247H142.158C140.629 95.247 139.171 95.888 138.139 97.0161L99 139.709H192.521L229.737 99.1154C231.093 97.6347 230.041 95.247 228.035 95.247Z"
        fill="#C0CCEC" />
    <path
        d="M208.956 54.4701H190.739C188.842 54.4701 187.415 52.7427 187.774 50.8806L191.031 34L208.956 54.4701Z"
        fill="#E3444E" />
</svg>
