<svg fill="none" height="22" viewBox="0 0 22 22" width="22" xmlns="http://www.w3.org/2000/svg">
    <path
        d="M3.66644 19.8H18.3331C18.7379 19.8 19.0664 19.4715 19.0664 19.0667V16.8667H2.93311V19.0667C2.93311 19.4715 3.26164 19.8 3.66644 19.8Z"
        fill="#0081B9" />
    <path
        d="M19.0669 5.13328H14.6669V2.93328C14.6669 2.52848 14.3391 2.19995 13.9335 2.19995H8.06686C7.66133 2.19995 7.33353 2.52848 7.33353 2.93328V5.13328H2.93353C2.528 5.13328 2.2002 5.46182 2.2002 5.86662V14.6666C2.2002 15.0714 2.528 15.4 2.93353 15.4H19.0669C19.4724 15.4 19.8002 15.0714 19.8002 14.6666V5.86662C19.8002 5.46182 19.4724 5.13328 19.0669 5.13328ZM8.80019 3.66662H13.2002V5.13328H8.80019V3.66662ZM13.9335 11.7333H8.06686V8.79995H13.9335V11.7333Z"
        fill="#0D7EE6" />
</svg>
