<svg fill="none" height="22" viewBox="0 0 22 22" width="22" xmlns="http://www.w3.org/2000/svg">
    <path clip-rule="evenodd"
        d="M10.9999 9.16675H18.3332C18.7222 9.16675 19.0952 9.32127 19.3703 9.59633C19.6453 9.87138 19.7999 10.2444 19.7999 10.6334V17.2334C19.7999 17.6224 19.6453 17.9955 19.3703 18.2705C19.0952 18.5456 18.7222 18.7001 18.3332 18.7001V20.9001L15.3999 18.7001H10.9999C10.6109 18.7001 10.2378 18.5456 9.96278 18.2705C9.68773 17.9955 9.5332 17.6224 9.5332 17.2334V10.6334C9.5332 10.2444 9.68773 9.87138 9.96278 9.59633C10.2378 9.32127 10.6109 9.16675 10.9999 9.16675ZM15.6199 15.2534L16.0005 16.5001H17.1965L15.3412 11.2435H13.9845L12.1365 16.5001H13.3326L13.7132 15.2534H15.6199ZM13.9904 14.3229C14.3629 13.1178 14.5883 12.3622 14.6665 12.0561C14.6871 12.1427 14.7193 12.26 14.7619 12.4074C14.8054 12.5555 15.0029 13.194 15.3544 14.3229H13.9904Z"
        fill="#0081B9" fill-rule="evenodd" />
    <path clip-rule="evenodd"
        d="M3.66686 3.30005H11.0002C11.3892 3.30005 11.7622 3.45457 12.0373 3.72963C12.3123 4.00468 12.4669 4.37773 12.4669 4.76672V8.43338H11.0002C10.6606 8.43458 10.326 8.5147 10.0227 8.66742C9.71943 8.82014 9.45581 9.04129 9.25266 9.31338C8.87713 9.19646 8.51638 9.03651 8.1776 8.83672C8.43611 8.54932 8.65511 8.22872 8.82879 7.88338C9.00879 7.52497 9.14118 7.14457 9.2226 6.75185C9.568 6.75185 9.79679 6.76358 10.0549 6.78705V5.72225C9.77268 5.75276 9.48887 5.76647 9.205 5.76332H7.81166V5.40545C7.81142 5.28553 7.82321 5.16588 7.84686 5.04832H6.67133C6.69543 5.16903 6.70722 5.29188 6.70653 5.41498V5.76698H5.41C5.12612 5.77 4.84232 5.75629 4.56006 5.72592V6.78705C4.8534 6.76358 5.05286 6.75185 5.39826 6.75185C5.49793 7.09919 5.6336 7.43516 5.80306 7.75432C6.00814 8.14282 6.26224 8.50339 6.55913 8.82718C5.9156 9.20294 5.21122 9.46305 4.47793 9.59572C4.72478 9.90609 4.91539 10.2573 5.04113 10.6334C5.87504 10.4102 6.66436 10.0453 7.3746 9.55465C7.82539 9.87671 8.31402 10.1422 8.82953 10.3452C8.81304 10.4404 8.80324 10.5367 8.80019 10.6334V12.8334H6.60019L3.66686 15.0334V12.8334C3.27788 12.8334 2.90483 12.6789 2.62977 12.4038C2.35472 12.1288 2.2002 11.7557 2.2002 11.3667V4.76672C2.2002 4.37773 2.35472 4.00468 2.62977 3.72963C2.90483 3.45457 3.27788 3.30005 3.66686 3.30005ZM8.0786 6.75185C7.95376 7.27766 7.70197 7.76487 7.34526 8.17085C6.95909 7.77298 6.67786 7.28536 6.52686 6.75185H8.0786Z"
        fill="#0D7EE6" fill-rule="evenodd" />
</svg>
