<svg fill="none" height="20" viewBox="0 0 20 20" width="20" xmlns="http://www.w3.org/2000/svg">
    <path
        d="M15.8775 12.6087C13.8807 13.1079 11.7841 12.4091 10.2866 11.0113C8.2898 9.01457 7.89045 5.91959 9.38802 3.52347C9.88721 2.82461 9.18834 1.82623 8.2898 2.0259C6.79223 2.32542 5.3945 3.12412 4.29628 4.22234C2.7987 5.71991 2 7.81651 2 9.91311C2 12.0097 2.7987 14.1063 4.39611 15.6039C5.89369 17.2013 7.89045 18 10.0869 18C12.2833 18 14.2801 17.2013 15.7777 15.6039C16.177 15.2045 16.5764 14.7053 16.9757 14.1063C17.3751 13.4074 16.776 12.4091 15.8775 12.6087Z"
        fill="#0D7EE6" />
    <path
        d="M17.6746 5.71998C18.0739 5.32063 18.0739 4.7216 17.6746 4.32225C17.2752 3.9229 16.6762 3.9229 16.2768 4.32225C15.9773 4.62176 14.9789 4.62176 14.6794 4.32225C14.2801 3.9229 13.681 3.9229 13.2817 4.32225C12.8823 4.7216 12.8823 5.32063 13.2817 5.71998C13.5812 6.0195 13.5812 7.01788 13.2817 7.31739C12.8823 7.71675 12.8823 8.31577 13.2817 8.71513C13.681 9.11448 14.2801 9.11448 14.6794 8.71513C14.9789 8.41561 15.9773 8.41561 16.2768 8.71513C16.6762 9.11448 17.2752 9.11448 17.6746 8.71513C18.0739 8.31577 18.0739 7.71675 17.6746 7.31739C17.3751 7.01788 17.3751 6.0195 17.6746 5.71998Z"
        fill="#0081B9" />
</svg>
