<svg fill="none" height="18" viewBox="0 0 26 18" width="26" xmlns="http://www.w3.org/2000/svg">
    <path clip-rule="evenodd"
        d="M2.2 0C1.09543 0 0.199997 0.895432 0.199997 2V15.0667C0.199997 16.1712 1.09543 17.0667 2.2 17.0667H23.8C24.9046 17.0667 25.8 16.1712 25.8 15.0667V2C25.8 0.895431 24.9046 0 23.8 0H2.2ZM4.99259 4.74074C4.4403 4.74074 3.99259 5.18845 3.99259 5.74074V12.2741C3.99259 12.8264 4.4403 13.2741 4.99259 13.2741H8.68148C9.23376 13.2741 9.68148 12.8264 9.68148 12.2741V5.74074C9.68148 5.18845 9.23376 4.74074 8.68148 4.74074H4.99259ZM13.4741 6.63704C13.4741 6.11339 13.8986 5.68889 14.4222 5.68889H21.0593C21.5829 5.68889 22.0074 6.11339 22.0074 6.63704C22.0074 7.16069 21.5829 7.58519 21.0593 7.58519H14.4222C13.8986 7.58519 13.4741 7.16069 13.4741 6.63704ZM22.0074 11.3778C22.0074 10.8541 21.5829 10.4296 21.0593 10.4296H14.4222C13.8986 10.4296 13.4741 10.8541 13.4741 11.3778C13.4741 11.9014 13.8986 12.3259 14.4222 12.3259H21.0593C21.5829 12.3259 22.0074 11.9014 22.0074 11.3778Z"
        fill="#FF8888" fill-rule="evenodd" />
</svg>
