<svg fill="none" height="20" viewBox="0 0 20 20" width="20" xmlns="http://www.w3.org/2000/svg">
    <path
        d="M16.1996 12.1001L13.4547 10.8821C13.1832 10.762 12.8797 10.7348 12.5911 10.8047C12.3026 10.8747 12.0452 11.0378 11.8588 11.2689L11.0302 12.3057C9.68736 11.4515 8.54845 10.3129 7.69385 8.97029L8.72983 8.14255C8.96171 7.95636 9.12553 7.69873 9.1958 7.40976C9.26606 7.1208 9.23882 6.81671 9.11832 6.54483L7.89947 3.80001C7.76999 3.50848 7.54121 3.27237 7.2539 3.13376C6.96659 2.99515 6.6394 2.96305 6.33062 3.04315L4.01017 3.64602C3.69004 3.72965 3.41169 3.92778 3.22786 4.20289C3.04402 4.47799 2.96747 4.81097 3.01269 5.13874C3.44241 8.12874 4.82911 10.8991 6.96516 13.035C9.10121 15.1709 11.8717 16.5574 14.8617 16.9869C14.9232 16.9956 14.9851 17 15.0472 17C15.3459 16.9998 15.6362 16.9006 15.8726 16.7179C16.1089 16.5352 16.2781 16.2793 16.3535 15.9903L16.9555 13.6689C17.0368 13.3603 17.0053 13.0327 16.8668 12.7452C16.7282 12.4576 16.4916 12.2289 16.1996 12.1001Z"
        fill="#6279B6" />
</svg>
