<svg fill="none" height="20" viewBox="0 0 20 20" width="20" xmlns="http://www.w3.org/2000/svg">
    <path
        d="M10 3C6.136 3 3 6.136 3 10C3 13.864 6.136 17 10 17C13.864 17 17 13.864 17 10C17 6.136 13.864 3 10 3ZM10.7 14.9H9.3V13.5H10.7V14.9ZM12.149 9.475L11.519 10.119C11.015 10.63 10.7 11.05 10.7 12.1H9.3V11.75C9.3 10.98 9.615 10.28 10.119 9.769L10.987 8.887C11.246 8.635 11.4 8.285 11.4 7.9C11.4 7.13 10.77 6.5 10 6.5C9.23 6.5 8.6 7.13 8.6 7.9H7.2C7.2 6.353 8.453 5.1 10 5.1C11.547 5.1 12.8 6.353 12.8 7.9C12.8 8.516 12.548 9.076 12.149 9.475Z"
        fill="#0D7EE6" />
</svg>
