<svg fill="none" height="14" viewBox="0 0 14 14" width="14" xmlns="http://www.w3.org/2000/svg">
    <path clip-rule="evenodd"
        d="M3 6C4.7 6 6 4.7 6 3C6 1.3 4.7 0 3 0C1.3 0 0 1.3 0 3C0 4.7 1.3 6 3 6ZM3 2C3.6 2 4 2.4 4 3C4 3.6 3.6 4 3 4C2.4 4 2 3.6 2 3C2 2.4 2.4 2 3 2ZM11 8C9.3 8 8 9.3 8 11C8 12.7 9.3 14 11 14C12.7 14 14 12.7 14 11C14 9.3 12.7 8 11 8ZM11 12C10.4 12 10 11.6 10 11C10 10.4 10.4 10 11 10C11.6 10 12 10.4 12 11C12 11.6 11.6 12 11 12ZM8 0H13C13.6 0 14 0.4 14 1V6H12V3.4L1.7 13.7C1.5 13.9 1.3 14 1 14C0.7 14 0.5 13.9 0.3 13.7C-0.1 13.3 -0.1 12.7 0.3 12.3L10.6 2H8V0Z"
        fill="#9BAED9" fill-rule="evenodd" />
</svg>
