<svg fill="none" height="20" viewBox="0 0 20 20" width="20" xmlns="http://www.w3.org/2000/svg">
    <path
        d="M17.146 7.05685L12.829 6.42885L10.902 2.51785C10.8105 2.36032 10.6791 2.22958 10.5212 2.1387C10.3633 2.04783 10.1842 2 10.002 2C9.81982 2 9.64079 2.04783 9.48286 2.1387C9.32492 2.22958 9.1936 2.36032 9.10203 2.51785L7.17503 6.42985L2.85803 7.05685C2.67317 7.08337 2.49942 7.16112 2.35647 7.2813C2.21353 7.40148 2.10709 7.55929 2.04922 7.73686C1.99135 7.91442 1.98436 8.10464 2.02904 8.28598C2.07372 8.46731 2.16829 8.6325 2.30203 8.76285L5.42503 11.8079L4.68803 16.1079C4.65652 16.2918 4.67709 16.4808 4.74741 16.6536C4.81773 16.8265 4.935 16.9762 5.08596 17.0858C5.23692 17.1955 5.41554 17.2607 5.60164 17.2741C5.78774 17.2876 5.97388 17.2487 6.13903 17.1619L10.002 15.1309L13.863 17.1599C14.0282 17.2467 14.2143 17.2856 14.4004 17.2721C14.5865 17.2587 14.7651 17.1935 14.9161 17.0838C15.0671 16.9742 15.1843 16.8245 15.2547 16.6516C15.325 16.4788 15.3455 16.2898 15.314 16.1059L14.577 11.8059L17.702 8.76285C17.8354 8.6326 17.9298 8.46763 17.9744 8.2866C18.019 8.10556 18.0121 7.91565 17.9545 7.73832C17.8969 7.56099 17.7908 7.40331 17.6483 7.28306C17.5058 7.16282 17.3325 7.08482 17.148 7.05785L17.146 7.05685Z"
        fill="#0D7EE6" />
</svg>
