<svg fill="none" height="98" viewBox="0 0 360 98" width="360" xmlns="http://www.w3.org/2000/svg">
    <mask height="98" id="mask0" maskUnits="userSpaceOnUse" width="360" x="0" y="0">
        <rect fill="#48484A" height="98" width="360" />
    </mask>
    <g mask="url(#mask0)">
        <path
            d="M210 55.5663V98H188.929V76.7831H172.071V98H151V55.5663C151 54.2933 151.421 53.0203 152.264 52.1716L177.55 30.9548C179.236 29.6817 181.343 29.6817 183.029 30.9548L208.314 52.1716C209.579 53.0203 210 54.2933 210 55.5663Z"
            fill="#6AC1E7" />
        <path
            d="M295 55.5663V98H273.929V76.7831H257.071V98H236V55.5663C236 54.2933 236.421 53.0203 237.264 52.1716L262.55 30.9548C264.236 29.6817 266.343 29.6817 268.029 30.9548L293.314 52.1716C294.579 53.0203 295 54.2933 295 55.5663Z"
            fill="#29292C" />
        <path
            d="M40 55.5663V98H18.9286V76.7831H2.07143V98H-19V55.5663C-19 54.2933 -18.5786 53.0203 -17.7357 52.1716L7.55 30.9548C9.23572 29.6817 11.3429 29.6817 13.0286 30.9548L38.3143 52.1716C39.5786 53.0203 40 54.2933 40 55.5663Z"
            fill="#29292C" />
        <path
            d="M380 55.5663V98H358.929V76.7831H342.071V98H321V55.5663C321 54.2933 321.421 53.0203 322.264 52.1716L347.55 30.9548C349.236 29.6817 351.343 29.6817 353.029 30.9548L378.314 52.1716C379.579 53.0203 380 54.2933 380 55.5663Z"
            fill="#29292C" />
        <path
            d="M125 55.5663V98H103.929V76.7831H87.0714V98H66V55.5663C66 54.2933 66.4214 53.0203 67.2643 52.1716L92.55 30.9548C94.2357 29.6817 96.3429 29.6817 98.0286 30.9548L123.314 52.1716C124.579 53.0203 125 54.2933 125 55.5663Z"
            fill="#29292C" />
    </g>
</svg>
