<svg fill="none" height="20" viewBox="0 0 20 20" width="20" xmlns="http://www.w3.org/2000/svg">
    <path
        d="M17.707 15.293L15 12.586C15.63 11.536 16 10.311 16 9C16 5.14 12.859 2 9 2C5.141 2 2 5.14 2 9C2 12.86 5.141 16 9 16C10.312 16 11.536 15.631 12.586 15L15.293 17.707C15.488 17.902 15.744 18 16 18C16.256 18 16.512 17.902 16.707 17.707L17.707 16.707C18.098 16.316 18.098 15.684 17.707 15.293ZM9 14C6.239 14 4 11.761 4 9C4 6.239 6.239 4 9 4C11.761 4 14 6.239 14 9C14 11.761 11.761 14 9 14Z"
        fill="#9BAED9" />
</svg>
