<svg fill="none" height="16" viewBox="0 0 17 16" width="17" xmlns="http://www.w3.org/2000/svg">
    <path
        d="M15.146 5.05685L10.829 4.42885L8.90203 0.517855C8.81046 0.36032 8.67914 0.22958 8.52121 0.138704C8.36327 0.0478284 8.18425 0 8.00203 0C7.81982 0 7.64079 0.0478284 7.48286 0.138704C7.32492 0.22958 7.1936 0.36032 7.10203 0.517855L5.17503 4.42985L0.858032 5.05685C0.673167 5.08337 0.499422 5.16112 0.356474 5.2813C0.213526 5.40148 0.10709 5.55929 0.0492202 5.73686C-0.00864935 5.91442 -0.0156393 6.10464 0.029042 6.28598C0.0737234 6.46731 0.168291 6.6325 0.302032 6.76285L3.42503 9.80785L2.68803 14.1079C2.65652 14.2918 2.67709 14.4808 2.74741 14.6536C2.81773 14.8265 2.935 14.9762 3.08596 15.0858C3.23692 15.1955 3.41554 15.2607 3.60164 15.2741C3.78774 15.2876 3.97388 15.2487 4.13903 15.1619L8.00203 13.1309L11.863 15.1599C12.0282 15.2467 12.2143 15.2856 12.4004 15.2721C12.5865 15.2587 12.7651 15.1935 12.9161 15.0838C13.0671 14.9742 13.1843 14.8245 13.2547 14.6516C13.325 14.4788 13.3455 14.2898 13.314 14.1059L12.577 9.80585L15.702 6.76285C15.8354 6.6326 15.9298 6.46763 15.9744 6.2866C16.019 6.10556 16.0121 5.91565 15.9545 5.73832C15.8969 5.56099 15.7908 5.40331 15.6483 5.28306C15.5058 5.16282 15.3325 5.08482 15.148 5.05785L15.146 5.05685Z"
        fill="#0D7EE6" />
</svg>
