<svg fill="none" height="20" viewBox="0 0 20 20" width="20" xmlns="http://www.w3.org/2000/svg">
    <path clip-rule="evenodd"
        d="M10 19.6C4.72 19.6 0.400002 15.28 0.400002 9.99999C0.400002 4.71999 4.72 0.399994 10 0.399994C15.28 0.399994 19.6 4.71999 19.6 9.99999C19.6 15.28 15.28 19.6 10 19.6ZM10 2.79999C6.04 2.79999 2.8 6.03999 2.8 9.99999C2.8 13.96 6.04 17.2 10 17.2C13.96 17.2 17.2 13.96 17.2 9.99999C17.2 6.03999 13.96 2.79999 10 2.79999ZM5.44 9.99998C5.8 9.03998 7.36 8.79998 8.08 9.15998C8.34845 9.2942 8.60021 9.32834 8.84773 9.3619H8.84774C9.2641 9.41835 9.66845 9.47317 10.12 9.99998C10.3461 10.3165 10.5721 10.4796 10.7725 10.6243C11.104 10.8635 11.3652 11.0521 11.44 11.8C11.5379 12.7786 10.4386 14.3958 9.83439 15.2845C9.69773 15.4855 9.58641 15.6493 9.52 15.76C9.04 16.36 7.84 15.64 7.84 13.96C7.84 12.3589 7.0771 12.1747 6.58994 12.0571C6.56591 12.0513 6.54256 12.0456 6.52 12.04C6.44387 12.0095 6.35808 11.981 6.26778 11.951L6.26777 11.951C5.64639 11.7444 4.81136 11.4668 5.44 9.99998ZM8.68 5.31999C8.2 5.19999 8.44 4.59999 8.44 4.59999C9.24541 4.19728 9.88865 4.33515 10.5148 4.46936C10.8216 4.53511 11.1243 4.59999 11.44 4.59999C11.92 4.59999 12.4 4.59999 12.88 4.71999C14.68 5.79998 16 7.71999 16 9.99998C16 10.48 15.88 10.96 15.76 11.44C15.6315 11.3972 15.4725 11.2168 15.2884 11.008C14.9565 10.6317 14.5431 10.1628 14.08 10.24C13.7247 10.2907 13.4983 10.041 13.2463 9.76307C12.9024 9.38387 12.511 8.95224 11.68 9.15999C10.6 9.39999 10.12 9.03998 10.24 8.43999C10.2795 8.20327 10.3708 7.97953 10.4586 7.76449C10.6378 7.32546 10.8022 6.92272 10.48 6.51999C10.4169 6.44109 10.36 6.36635 10.3061 6.29549C9.94978 5.82739 9.72222 5.52843 8.68 5.31999Z"
        fill="#0D7EE6" fill-rule="evenodd" />
</svg>
