<svg fill="none" height="71" viewBox="0 0 76 71" width="76" xmlns="http://www.w3.org/2000/svg">
    <defs>
        <linearGradient gradientUnits="userSpaceOnUse" id="paint0_linear" x1="43.5399" x2="43.5399"
            y1="4.04999" y2="69.9662">
            <stop stop-color="#BFB6E0" />
            <stop offset="1" stop-color="#9181C9" />
        </linearGradient>
        <linearGradient gradientUnits="userSpaceOnUse" id="paint1_linear" x1="18" x2="24" y1="35"
            y2="69">
            <stop stop-color="#BFB6E0" />
            <stop offset="1" stop-color="#9181C9" />
        </linearGradient>
    </defs>
    <path
        d="M66.5362 40.9888C68.0436 44.4634 66.9079 48.5189 63.8151 50.7053L36.5694 69.9662H36.5672L17.9563 27.0636L38.0932 12.8276L42.4717 9.73249C46.617 6.80221 52.4081 8.42406 54.4286 13.0811L66.5362 40.9888Z"
        fill="url(#paint0_linear)" />
    <path
        d="M38.0932 12.8276L17.9563 27.0636L22.7672 18.1301L28.6186 7.26128C30.2022 4.31976 34.4805 4.50068 35.8102 7.56538L38.0932 12.8276Z"
        fill="#9480DC" />
    <path
        d="M22.7672 18.1301L17.9563 27.0637L17.7487 11.3952C17.7343 10.303 19.2312 9.9819 19.666 10.9839L22.7672 18.1301Z"
        fill="#5938CF" />
    <path
        d="M36.5672 69.9662L19.2288 61.9977C17.9635 61.4162 16.9573 60.3882 16.4031 59.1107L0.121395 21.5818C-0.394764 20.3921 0.829869 19.1934 2.00827 19.7349L17.9563 27.0636L36.5672 69.9662Z"
        fill="url(#paint1_linear)" />
    <path
        d="M75.1258 53.2536L70.8555 56.1646L72.311 56.8443C71.7296 58.0091 70.5648 61.5015 64.5483 61.5015C64.1721 61.5015 63.8686 61.198 63.8686 60.8218V50.8384C63.8686 50.4836 64.1571 50.1951 64.5119 50.1951H69.9685V47.2841H64.5119C64.1571 47.2841 63.8686 46.9955 63.8686 46.6407V43.9883C63.8686 43.7233 64.031 43.4839 64.279 43.3899C66.2624 42.6375 67.6709 40.7204 67.6709 38.4741C67.6709 35.4968 65.1959 33.0987 62.1929 33.2205C59.5042 33.3295 57.3092 35.4968 57.166 38.1855C57.0399 40.5537 58.4804 42.6034 60.5451 43.3899C60.793 43.4839 60.9576 43.7233 60.9576 43.9905V46.6429C60.9576 46.9977 60.669 47.2862 60.3142 47.2862H54.8598V50.1972H60.3164C60.6712 50.1972 60.9597 50.4858 60.9597 50.8406V60.8261C60.9597 61.2023 60.6562 61.5058 60.28 61.5058C54.2635 61.5058 53.0987 58.0113 52.5173 56.8486L53.9728 56.1689L49.7025 53.2536L48.8283 58.2998L50.38 57.7184C50.769 58.785 52.1262 62.474 55.9114 64.8015L56.6872 65.2867C58.63 66.4515 60.9597 68.1015 60.9597 70.0422V70.3329H63.8707V70.0422C63.8707 68.1015 66.2004 66.4515 68.1411 65.2867L68.9169 64.8015C72.7021 62.4718 74.0593 58.785 74.4483 57.7184L76 58.2998L75.1258 53.2536ZM59.5833 38.4741C59.5833 36.9117 60.8528 35.6421 62.4131 35.6421C63.9755 35.6421 65.245 36.9117 65.245 38.4741C65.245 40.0343 63.9755 41.3039 62.4131 41.3039C60.855 41.3039 59.5833 40.0343 59.5833 38.4741Z"
        fill="#5938CF" />
</svg>
