<svg fill="none" height="16" viewBox="0 0 16 16" width="16" xmlns="http://www.w3.org/2000/svg">
    <path
        d="M2.66663 14.4H13.3333C13.6277 14.4 13.8666 14.161 13.8666 13.8666V12.2666H2.1333V13.8666C2.1333 14.161 2.37223 14.4 2.66663 14.4Z"
        fill="#0081B9" />
    <path
        d="M13.8666 3.73333H10.6666V2.13333C10.6666 1.83893 10.4282 1.6 10.1333 1.6H5.86664C5.57171 1.6 5.33331 1.83893 5.33331 2.13333V3.73333H2.13331C1.83838 3.73333 1.59998 3.97227 1.59998 4.26666V10.6667C1.59998 10.9611 1.83838 11.2 2.13331 11.2H13.8666C14.1616 11.2 14.4 10.9611 14.4 10.6667V4.26666C14.4 3.97227 14.1616 3.73333 13.8666 3.73333ZM6.39998 2.66667H9.59998V3.73333H6.39998V2.66667ZM10.1333 8.53333H5.86664V6.4H10.1333V8.53333Z"
        fill="#0D7EE6" />
</svg>
