<svg fill="none" height="14" viewBox="0 0 14 14" width="14" xmlns="http://www.w3.org/2000/svg">
    <path clip-rule="evenodd"
        d="M4.8125 2.625C5.53737 2.625 6.125 2.03737 6.125 1.3125C6.125 0.587626 5.53737 0 4.8125 0C4.08763 0 3.5 0.587626 3.5 1.3125C3.5 2.03737 4.08763 2.625 4.8125 2.625ZM14 3.5H0V5.25H1.4L0.35 8.05C-0.175 9.3625 0 10.85 0.7875 12.075C1.575 13.3 2.8875 14 4.2875 14H9.625C11.025 14 12.425 13.3 13.2125 12.075C14 10.85 14.175 9.3625 13.65 8.05L12.6 5.25H14V3.5ZM10.5 1.3125C10.5 2.03737 9.91237 2.625 9.1875 2.625C8.46263 2.625 7.875 2.03737 7.875 1.3125C7.875 0.587626 8.46263 0 9.1875 0C9.91237 0 10.5 0.587626 10.5 1.3125Z"
        fill="#9BAED9" fill-rule="evenodd" />
</svg>
