<svg fill="none" height="20" viewBox="0 0 21 20" width="21" xmlns="http://www.w3.org/2000/svg">
    <path d="M11.5 6V13H9.5V6H6.5L10.5 2L14.5 6H11.5Z" fill="#0A84FE" />
    <path
        d="M17.5 18H3.49998C3.21298 18 2.93998 17.877 2.74998 17.662C2.55998 17.447 2.47198 17.161 2.50698 16.876L3.50698 8.876C3.56998 8.375 3.99598 8 4.49998 8H7.49998V10H5.38298L4.63298 16H16.367L15.617 10H13.5V8H16.5C17.004 8 17.43 8.375 17.492 8.876L18.492 16.876C18.528 17.161 18.439 17.447 18.249 17.662C18.06 17.877 17.787 18 17.5 18Z"
        fill="#7DBCFF" />
</svg>
