<svg fill="none" height="37" viewBox="0 0 36 37" width="36" xmlns="http://www.w3.org/2000/svg">
    <rect fill="#0D7EE6" height="36" rx="18" width="36" y="0.5" />
    <path d="M19 14.5V21.5H17V14.5H14L18 10.5L22 14.5H19Z" fill="white" />
    <path
        d="M25 26.5H11C10.713 26.5 10.44 26.377 10.25 26.162C10.06 25.947 9.97198 25.661 10.007 25.376L11.007 17.376C11.07 16.875 11.496 16.5 12 16.5H15V18.5H12.883L12.133 24.5H23.867L23.117 18.5H21V16.5H24C24.504 16.5 24.93 16.875 24.992 17.376L25.992 25.376C26.028 25.661 25.939 25.947 25.749 26.162C25.56 26.377 25.287 26.5 25 26.5Z"
        fill="white" />
</svg>
