<svg fill="none" height="36" viewBox="0 0 36 36" width="36" xmlns="http://www.w3.org/2000/svg">
    <rect fill="#E8EFFF" height="36" rx="18" width="36" />
    <path d="M19 14V21H17V14H14L18 10L22 14H19Z" fill="#0D7EE6" />
    <path
        d="M25 26H11C10.713 26 10.44 25.877 10.25 25.662C10.06 25.447 9.97198 25.161 10.007 24.876L11.007 16.876C11.07 16.375 11.496 16 12 16H15V18H12.883L12.133 24H23.867L23.117 18H21V16H24C24.504 16 24.93 16.375 24.992 16.876L25.992 24.876C26.028 25.161 25.939 25.447 25.749 25.662C25.56 25.877 25.287 26 25 26Z"
        fill="#0081B9" />
</svg>
