<svg fill="none" height="16" viewBox="0 0 16 16" width="16" xmlns="http://www.w3.org/2000/svg">
    <path clip-rule="evenodd"
        d="M0 8C0 3.6 3.6 0 8 0C12.4 0 16 3.6 16 8C16 12.4 12.4 16 8 16C3.6 16 0 12.4 0 8ZM9 11C10.6 11 11.4 11.7 12 12.4C13.2 11.3 14 9.8 14 8C14 4.7 11.3 2 8 2C4.7 2 2 4.7 2 8C2 9.8 2.8 11.3 4 12.4C4.6 11.7 5.4 11 7 11H9ZM11 7C11 8.65685 9.65685 10 8 10C6.34315 10 5 8.65685 5 7C5 5.34315 6.34315 4 8 4C9.65685 4 11 5.34315 11 7Z"
        fill="#9BAED9" fill-rule="evenodd" />
</svg>
