<svg fill="none" height="20" viewBox="0 0 20 20" width="20" xmlns="http://www.w3.org/2000/svg">
    <path
        d="M13.505 17.135C13.166 16.699 13.244 16.072 13.68 15.732C15.154 14.583 16 12.858 16 11C16 7.691 13.309 5 10 5C6.691 5 4 7.691 4 11C4 12.858 4.846 14.583 6.32 15.731C6.756 16.071 6.834 16.699 6.495 17.134C6.155 17.57 5.527 17.646 5.092 17.309C3.127 15.778 2 13.479 2 11C2 6.589 5.589 3 10 3C14.411 3 18 6.589 18 11C18 13.479 16.873 15.778 14.908 17.31C14.466 17.652 13.84 17.565 13.505 17.135Z"
        fill="#0D7EE6" />
    <path
        d="M11.045 13.973C10.706 13.537 10.784 12.908 11.22 12.569C11.716 12.184 12 11.611 12 11C12 9.897 11.103 9 10 9C8.897 9 8 9.897 8 11C8 11.611 8.284 12.184 8.78 12.569C9.216 12.908 9.294 13.537 8.955 13.972C8.615 14.408 7.987 14.487 7.552 14.147C6.565 13.38 6 12.232 6 11C6 8.794 7.794 7 10 7C12.206 7 14 8.794 14 11C14 12.232 13.435 13.38 12.448 14.147C12.014 14.487 11.385 14.409 11.045 13.973Z"
        fill="#0081B9" />
</svg>
