<svg fill="none" height="20" viewBox="0 0 20 20" width="20" xmlns="http://www.w3.org/2000/svg">
    <path
        d="M17.707 7.293L16 5.586V2H14V5.586L12.293 7.293C12.1055 7.48049 12.0001 7.73481 12 8V10H14V8.414L15 7.414L16 8.414V10H18V8C17.9999 7.73481 17.8945 7.48049 17.707 7.293Z"
        fill="#0081B9" />
    <path
        d="M17 12H13C12.7348 12 12.4804 12.1054 12.2929 12.2929C12.1054 12.4804 12 12.7348 12 13V16H10V9C10 8.73478 9.89464 8.48043 9.70711 8.29289C9.51957 8.10536 9.26522 8 9 8H3C2.73478 8 2.48043 8.10536 2.29289 8.29289C2.10536 8.48043 2 8.73478 2 9V17C2 17.2652 2.10536 17.5196 2.29289 17.7071C2.48043 17.8946 2.73478 18 3 18H17C17.2652 18 17.5196 17.8946 17.7071 17.7071C17.8946 17.5196 18 17.2652 18 17V13C18 12.7348 17.8946 12.4804 17.7071 12.2929C17.5196 12.1054 17.2652 12 17 12Z"
        fill="#0D7EE6" />
</svg>
